G04 MADE WITH FRITZING*
G04 WWW.FRITZING.ORG*
G04 DOUBLE SIDED*
G04 HOLES PLATED*
G04 CONTOUR ON CENTER OF CONTOUR VECTOR*
%ASAXBY*%
%FSLAX23Y23*%
%MOIN*%
%OFA0B0*%
%SFA1.0B1.0*%
%ADD10C,0.088000*%
%ADD11C,0.085000*%
%ADD12C,0.090000*%
%ADD13C,0.049370*%
%ADD14R,0.088000X0.088000*%
%ADD15R,0.085000X0.085000*%
%ADD16C,0.030000*%
%ADD17R,0.001000X0.001000*%
%LNMASK1*%
G90*
G70*
G54D10*
X676Y1927D03*
X676Y2027D03*
X1376Y2027D03*
X1376Y1927D03*
G54D11*
X876Y2327D03*
X1176Y2327D03*
X876Y2227D03*
X1176Y2227D03*
X876Y2127D03*
X1176Y2127D03*
X876Y2027D03*
X1176Y2027D03*
X876Y1927D03*
X1176Y1927D03*
X876Y1827D03*
X1176Y1827D03*
X876Y1727D03*
X1176Y1727D03*
X876Y1627D03*
X1176Y1627D03*
G54D12*
X1376Y427D03*
X1521Y427D03*
X1666Y427D03*
X1376Y427D03*
X1521Y427D03*
X1666Y427D03*
X1376Y727D03*
X1521Y727D03*
X1666Y727D03*
X1376Y727D03*
X1521Y727D03*
X1666Y727D03*
G54D10*
X1476Y1027D03*
X1576Y1027D03*
X1676Y1027D03*
G54D11*
X276Y727D03*
X676Y727D03*
X276Y427D03*
X676Y427D03*
X276Y1027D03*
X676Y1027D03*
X776Y727D03*
X1176Y727D03*
X776Y427D03*
X1176Y427D03*
X776Y1027D03*
X1176Y1027D03*
G54D13*
X1884Y2140D03*
X252Y2596D03*
X372Y1180D03*
X516Y2500D03*
G54D14*
X1376Y2027D03*
G54D15*
X876Y2327D03*
G54D16*
G36*
X647Y1898D02*
X647Y1956D01*
X705Y1956D01*
X705Y1898D01*
X647Y1898D01*
G37*
D02*
G36*
X1447Y1056D02*
X1505Y1056D01*
X1505Y998D01*
X1447Y998D01*
X1447Y1056D01*
G37*
D02*
G54D17*
X1372Y1467D02*
X1380Y1467D01*
X1472Y1467D02*
X1480Y1467D01*
X1367Y1466D02*
X1384Y1466D01*
X1467Y1466D02*
X1484Y1466D01*
X1364Y1465D02*
X1387Y1465D01*
X1464Y1465D02*
X1487Y1465D01*
X1362Y1464D02*
X1390Y1464D01*
X1462Y1464D02*
X1490Y1464D01*
X1360Y1463D02*
X1392Y1463D01*
X1460Y1463D02*
X1492Y1463D01*
X1358Y1462D02*
X1393Y1462D01*
X1458Y1462D02*
X1493Y1462D01*
X1356Y1461D02*
X1395Y1461D01*
X1456Y1461D02*
X1495Y1461D01*
X1355Y1460D02*
X1397Y1460D01*
X1455Y1460D02*
X1497Y1460D01*
X1353Y1459D02*
X1398Y1459D01*
X1453Y1459D02*
X1498Y1459D01*
X1352Y1458D02*
X1399Y1458D01*
X1452Y1458D02*
X1499Y1458D01*
X1351Y1457D02*
X1400Y1457D01*
X1451Y1457D02*
X1500Y1457D01*
X1350Y1456D02*
X1401Y1456D01*
X1450Y1456D02*
X1501Y1456D01*
X1349Y1455D02*
X1402Y1455D01*
X1449Y1455D02*
X1502Y1455D01*
X1348Y1454D02*
X1403Y1454D01*
X1448Y1454D02*
X1503Y1454D01*
X1347Y1453D02*
X1404Y1453D01*
X1447Y1453D02*
X1504Y1453D01*
X1346Y1452D02*
X1405Y1452D01*
X1446Y1452D02*
X1505Y1452D01*
X1345Y1451D02*
X1406Y1451D01*
X1445Y1451D02*
X1506Y1451D01*
X1344Y1450D02*
X1407Y1450D01*
X1444Y1450D02*
X1507Y1450D01*
X1344Y1449D02*
X1408Y1449D01*
X1444Y1449D02*
X1508Y1449D01*
X1343Y1448D02*
X1408Y1448D01*
X1443Y1448D02*
X1508Y1448D01*
X1342Y1447D02*
X1409Y1447D01*
X1442Y1447D02*
X1509Y1447D01*
X1342Y1446D02*
X1410Y1446D01*
X1442Y1446D02*
X1510Y1446D01*
X1341Y1445D02*
X1410Y1445D01*
X1441Y1445D02*
X1510Y1445D01*
X1341Y1444D02*
X1411Y1444D01*
X1441Y1444D02*
X1511Y1444D01*
X1340Y1443D02*
X1411Y1443D01*
X1440Y1443D02*
X1511Y1443D01*
X1340Y1442D02*
X1412Y1442D01*
X1440Y1442D02*
X1512Y1442D01*
X1339Y1441D02*
X1412Y1441D01*
X1439Y1441D02*
X1512Y1441D01*
X1339Y1440D02*
X1413Y1440D01*
X1439Y1440D02*
X1513Y1440D01*
X1338Y1439D02*
X1413Y1439D01*
X1438Y1439D02*
X1513Y1439D01*
X1338Y1438D02*
X1413Y1438D01*
X1438Y1438D02*
X1513Y1438D01*
X1338Y1437D02*
X1414Y1437D01*
X1438Y1437D02*
X1514Y1437D01*
X1337Y1436D02*
X1414Y1436D01*
X1437Y1436D02*
X1514Y1436D01*
X1337Y1435D02*
X1414Y1435D01*
X1437Y1435D02*
X1514Y1435D01*
X1337Y1434D02*
X1414Y1434D01*
X1437Y1434D02*
X1514Y1434D01*
X1337Y1433D02*
X1415Y1433D01*
X1437Y1433D02*
X1515Y1433D01*
X1337Y1432D02*
X1415Y1432D01*
X1437Y1432D02*
X1515Y1432D01*
X1336Y1431D02*
X1415Y1431D01*
X1436Y1431D02*
X1515Y1431D01*
X1336Y1430D02*
X1415Y1430D01*
X1436Y1430D02*
X1515Y1430D01*
X1336Y1429D02*
X1415Y1429D01*
X1436Y1429D02*
X1515Y1429D01*
X1336Y1428D02*
X1415Y1428D01*
X1436Y1428D02*
X1515Y1428D01*
X1336Y1427D02*
X1415Y1427D01*
X1436Y1427D02*
X1515Y1427D01*
X1336Y1426D02*
X1415Y1426D01*
X1436Y1426D02*
X1515Y1426D01*
X1336Y1425D02*
X1415Y1425D01*
X1436Y1425D02*
X1515Y1425D01*
X1336Y1424D02*
X1415Y1424D01*
X1436Y1424D02*
X1515Y1424D01*
X1336Y1423D02*
X1415Y1423D01*
X1436Y1423D02*
X1515Y1423D01*
X1337Y1422D02*
X1415Y1422D01*
X1437Y1422D02*
X1515Y1422D01*
X1337Y1421D02*
X1414Y1421D01*
X1437Y1421D02*
X1514Y1421D01*
X1337Y1420D02*
X1414Y1420D01*
X1437Y1420D02*
X1514Y1420D01*
X1337Y1419D02*
X1414Y1419D01*
X1437Y1419D02*
X1514Y1419D01*
X1338Y1418D02*
X1414Y1418D01*
X1438Y1418D02*
X1514Y1418D01*
X1338Y1417D02*
X1413Y1417D01*
X1438Y1417D02*
X1513Y1417D01*
X1338Y1416D02*
X1413Y1416D01*
X1438Y1416D02*
X1513Y1416D01*
X1339Y1415D02*
X1413Y1415D01*
X1439Y1415D02*
X1513Y1415D01*
X1339Y1414D02*
X1412Y1414D01*
X1439Y1414D02*
X1512Y1414D01*
X1339Y1413D02*
X1412Y1413D01*
X1439Y1413D02*
X1512Y1413D01*
X1340Y1412D02*
X1411Y1412D01*
X1440Y1412D02*
X1511Y1412D01*
X1340Y1411D02*
X1411Y1411D01*
X1440Y1411D02*
X1511Y1411D01*
X1341Y1410D02*
X1410Y1410D01*
X1441Y1410D02*
X1510Y1410D01*
X1342Y1409D02*
X1410Y1409D01*
X1442Y1409D02*
X1510Y1409D01*
X1342Y1408D02*
X1409Y1408D01*
X1442Y1408D02*
X1509Y1408D01*
X1343Y1407D02*
X1408Y1407D01*
X1443Y1407D02*
X1508Y1407D01*
X1343Y1406D02*
X1408Y1406D01*
X1443Y1406D02*
X1508Y1406D01*
X1344Y1405D02*
X1407Y1405D01*
X1444Y1405D02*
X1507Y1405D01*
X1345Y1404D02*
X1406Y1404D01*
X1445Y1404D02*
X1506Y1404D01*
X1346Y1403D02*
X1406Y1403D01*
X1446Y1403D02*
X1506Y1403D01*
X1347Y1402D02*
X1405Y1402D01*
X1447Y1402D02*
X1505Y1402D01*
X1348Y1401D02*
X1404Y1401D01*
X1448Y1401D02*
X1504Y1401D01*
X1349Y1400D02*
X1403Y1400D01*
X1449Y1400D02*
X1503Y1400D01*
X1350Y1399D02*
X1402Y1399D01*
X1450Y1399D02*
X1502Y1399D01*
X1351Y1398D02*
X1401Y1398D01*
X1451Y1398D02*
X1501Y1398D01*
X1352Y1397D02*
X1400Y1397D01*
X1452Y1397D02*
X1500Y1397D01*
X1353Y1396D02*
X1398Y1396D01*
X1453Y1396D02*
X1498Y1396D01*
X1354Y1395D02*
X1397Y1395D01*
X1454Y1395D02*
X1497Y1395D01*
X1356Y1394D02*
X1395Y1394D01*
X1456Y1394D02*
X1495Y1394D01*
X1357Y1393D02*
X1394Y1393D01*
X1457Y1393D02*
X1494Y1393D01*
X1359Y1392D02*
X1392Y1392D01*
X1459Y1392D02*
X1492Y1392D01*
X1361Y1391D02*
X1390Y1391D01*
X1461Y1391D02*
X1490Y1391D01*
X1363Y1390D02*
X1388Y1390D01*
X1463Y1390D02*
X1488Y1390D01*
X1366Y1389D02*
X1385Y1389D01*
X1466Y1389D02*
X1485Y1389D01*
X1370Y1388D02*
X1381Y1388D01*
X1470Y1388D02*
X1481Y1388D01*
X1331Y772D02*
X1420Y772D01*
X1331Y771D02*
X1420Y771D01*
X1331Y770D02*
X1420Y770D01*
X1331Y769D02*
X1420Y769D01*
X1331Y768D02*
X1420Y768D01*
X1331Y767D02*
X1420Y767D01*
X1331Y766D02*
X1420Y766D01*
X1331Y765D02*
X1420Y765D01*
X1331Y764D02*
X1420Y764D01*
X1331Y763D02*
X1420Y763D01*
X1331Y762D02*
X1420Y762D01*
X1331Y761D02*
X1420Y761D01*
X1331Y760D02*
X1420Y760D01*
X1331Y759D02*
X1420Y759D01*
X1331Y758D02*
X1420Y758D01*
X1331Y757D02*
X1420Y757D01*
X1331Y756D02*
X1420Y756D01*
X1331Y755D02*
X1420Y755D01*
X1331Y754D02*
X1420Y754D01*
X1331Y753D02*
X1420Y753D01*
X1331Y752D02*
X1420Y752D01*
X1331Y751D02*
X1420Y751D01*
X1331Y750D02*
X1420Y750D01*
X1331Y749D02*
X1420Y749D01*
X1331Y748D02*
X1420Y748D01*
X1331Y747D02*
X1420Y747D01*
X1331Y746D02*
X1373Y746D01*
X1378Y746D02*
X1420Y746D01*
X1331Y745D02*
X1369Y745D01*
X1382Y745D02*
X1420Y745D01*
X1331Y744D02*
X1367Y744D01*
X1384Y744D02*
X1420Y744D01*
X1331Y743D02*
X1365Y743D01*
X1386Y743D02*
X1420Y743D01*
X1331Y742D02*
X1364Y742D01*
X1388Y742D02*
X1420Y742D01*
X1331Y741D02*
X1362Y741D01*
X1389Y741D02*
X1420Y741D01*
X1331Y740D02*
X1361Y740D01*
X1390Y740D02*
X1420Y740D01*
X1331Y739D02*
X1360Y739D01*
X1391Y739D02*
X1420Y739D01*
X1331Y738D02*
X1360Y738D01*
X1392Y738D02*
X1420Y738D01*
X1331Y737D02*
X1359Y737D01*
X1392Y737D02*
X1420Y737D01*
X1331Y736D02*
X1358Y736D01*
X1393Y736D02*
X1420Y736D01*
X1331Y735D02*
X1358Y735D01*
X1393Y735D02*
X1420Y735D01*
X1331Y734D02*
X1358Y734D01*
X1394Y734D02*
X1420Y734D01*
X1331Y733D02*
X1357Y733D01*
X1394Y733D02*
X1420Y733D01*
X1331Y732D02*
X1357Y732D01*
X1394Y732D02*
X1420Y732D01*
X1331Y731D02*
X1357Y731D01*
X1394Y731D02*
X1420Y731D01*
X1331Y730D02*
X1357Y730D01*
X1395Y730D02*
X1420Y730D01*
X1331Y729D02*
X1357Y729D01*
X1395Y729D02*
X1420Y729D01*
X1331Y728D02*
X1357Y728D01*
X1395Y728D02*
X1420Y728D01*
X1331Y727D02*
X1357Y727D01*
X1395Y727D02*
X1420Y727D01*
X1331Y726D02*
X1357Y726D01*
X1395Y726D02*
X1420Y726D01*
X1331Y725D02*
X1357Y725D01*
X1395Y725D02*
X1420Y725D01*
X1331Y724D02*
X1357Y724D01*
X1394Y724D02*
X1420Y724D01*
X1331Y723D02*
X1357Y723D01*
X1394Y723D02*
X1420Y723D01*
X1331Y722D02*
X1357Y722D01*
X1394Y722D02*
X1420Y722D01*
X1331Y721D02*
X1358Y721D01*
X1394Y721D02*
X1420Y721D01*
X1331Y720D02*
X1358Y720D01*
X1393Y720D02*
X1420Y720D01*
X1331Y719D02*
X1358Y719D01*
X1393Y719D02*
X1420Y719D01*
X1331Y718D02*
X1359Y718D01*
X1392Y718D02*
X1420Y718D01*
X1331Y717D02*
X1359Y717D01*
X1392Y717D02*
X1420Y717D01*
X1331Y716D02*
X1360Y716D01*
X1391Y716D02*
X1420Y716D01*
X1331Y715D02*
X1361Y715D01*
X1390Y715D02*
X1420Y715D01*
X1331Y714D02*
X1362Y714D01*
X1389Y714D02*
X1420Y714D01*
X1331Y713D02*
X1363Y713D01*
X1388Y713D02*
X1420Y713D01*
X1331Y712D02*
X1365Y712D01*
X1387Y712D02*
X1420Y712D01*
X1331Y711D02*
X1366Y711D01*
X1385Y711D02*
X1420Y711D01*
X1331Y710D02*
X1368Y710D01*
X1383Y710D02*
X1420Y710D01*
X1331Y709D02*
X1371Y709D01*
X1380Y709D02*
X1420Y709D01*
X1331Y708D02*
X1420Y708D01*
X1331Y707D02*
X1420Y707D01*
X1331Y706D02*
X1420Y706D01*
X1331Y705D02*
X1420Y705D01*
X1331Y704D02*
X1420Y704D01*
X1331Y703D02*
X1420Y703D01*
X1331Y702D02*
X1420Y702D01*
X1331Y701D02*
X1420Y701D01*
X1331Y700D02*
X1420Y700D01*
X1331Y699D02*
X1420Y699D01*
X1331Y698D02*
X1420Y698D01*
X1331Y697D02*
X1420Y697D01*
X1331Y696D02*
X1420Y696D01*
X1331Y695D02*
X1420Y695D01*
X1331Y694D02*
X1420Y694D01*
X1331Y693D02*
X1420Y693D01*
X1331Y692D02*
X1420Y692D01*
X1331Y691D02*
X1420Y691D01*
X1331Y690D02*
X1420Y690D01*
X1331Y689D02*
X1420Y689D01*
X1331Y688D02*
X1420Y688D01*
X1331Y687D02*
X1420Y687D01*
X1331Y686D02*
X1420Y686D01*
X1331Y685D02*
X1420Y685D01*
X1331Y684D02*
X1420Y684D01*
X1331Y683D02*
X1420Y683D01*
X1331Y472D02*
X1420Y472D01*
X1331Y471D02*
X1420Y471D01*
X1331Y470D02*
X1420Y470D01*
X1331Y469D02*
X1420Y469D01*
X1331Y468D02*
X1420Y468D01*
X1331Y467D02*
X1420Y467D01*
X1331Y466D02*
X1420Y466D01*
X1331Y465D02*
X1420Y465D01*
X1331Y464D02*
X1420Y464D01*
X1331Y463D02*
X1420Y463D01*
X1331Y462D02*
X1420Y462D01*
X1331Y461D02*
X1420Y461D01*
X1331Y460D02*
X1420Y460D01*
X1331Y459D02*
X1420Y459D01*
X1331Y458D02*
X1420Y458D01*
X1331Y457D02*
X1420Y457D01*
X1331Y456D02*
X1420Y456D01*
X1331Y455D02*
X1420Y455D01*
X1331Y454D02*
X1420Y454D01*
X1331Y453D02*
X1420Y453D01*
X1331Y452D02*
X1420Y452D01*
X1331Y451D02*
X1420Y451D01*
X1331Y450D02*
X1420Y450D01*
X1331Y449D02*
X1420Y449D01*
X1331Y448D02*
X1420Y448D01*
X1331Y447D02*
X1420Y447D01*
X1331Y446D02*
X1373Y446D01*
X1378Y446D02*
X1420Y446D01*
X1331Y445D02*
X1369Y445D01*
X1382Y445D02*
X1420Y445D01*
X1331Y444D02*
X1367Y444D01*
X1384Y444D02*
X1420Y444D01*
X1331Y443D02*
X1365Y443D01*
X1386Y443D02*
X1420Y443D01*
X1331Y442D02*
X1364Y442D01*
X1388Y442D02*
X1420Y442D01*
X1331Y441D02*
X1362Y441D01*
X1389Y441D02*
X1420Y441D01*
X1331Y440D02*
X1361Y440D01*
X1390Y440D02*
X1420Y440D01*
X1331Y439D02*
X1360Y439D01*
X1391Y439D02*
X1420Y439D01*
X1331Y438D02*
X1360Y438D01*
X1392Y438D02*
X1420Y438D01*
X1331Y437D02*
X1359Y437D01*
X1392Y437D02*
X1420Y437D01*
X1331Y436D02*
X1358Y436D01*
X1393Y436D02*
X1420Y436D01*
X1331Y435D02*
X1358Y435D01*
X1393Y435D02*
X1420Y435D01*
X1331Y434D02*
X1358Y434D01*
X1394Y434D02*
X1420Y434D01*
X1331Y433D02*
X1357Y433D01*
X1394Y433D02*
X1420Y433D01*
X1331Y432D02*
X1357Y432D01*
X1394Y432D02*
X1420Y432D01*
X1331Y431D02*
X1357Y431D01*
X1394Y431D02*
X1420Y431D01*
X1331Y430D02*
X1357Y430D01*
X1395Y430D02*
X1420Y430D01*
X1331Y429D02*
X1357Y429D01*
X1395Y429D02*
X1420Y429D01*
X1331Y428D02*
X1357Y428D01*
X1395Y428D02*
X1420Y428D01*
X1331Y427D02*
X1357Y427D01*
X1395Y427D02*
X1420Y427D01*
X1331Y426D02*
X1357Y426D01*
X1395Y426D02*
X1420Y426D01*
X1331Y425D02*
X1357Y425D01*
X1395Y425D02*
X1420Y425D01*
X1331Y424D02*
X1357Y424D01*
X1394Y424D02*
X1420Y424D01*
X1331Y423D02*
X1357Y423D01*
X1394Y423D02*
X1420Y423D01*
X1331Y422D02*
X1357Y422D01*
X1394Y422D02*
X1420Y422D01*
X1331Y421D02*
X1358Y421D01*
X1394Y421D02*
X1420Y421D01*
X1331Y420D02*
X1358Y420D01*
X1393Y420D02*
X1420Y420D01*
X1331Y419D02*
X1358Y419D01*
X1393Y419D02*
X1420Y419D01*
X1331Y418D02*
X1359Y418D01*
X1392Y418D02*
X1420Y418D01*
X1331Y417D02*
X1359Y417D01*
X1392Y417D02*
X1420Y417D01*
X1331Y416D02*
X1360Y416D01*
X1391Y416D02*
X1420Y416D01*
X1331Y415D02*
X1361Y415D01*
X1390Y415D02*
X1420Y415D01*
X1331Y414D02*
X1362Y414D01*
X1389Y414D02*
X1420Y414D01*
X1331Y413D02*
X1363Y413D01*
X1388Y413D02*
X1420Y413D01*
X1331Y412D02*
X1365Y412D01*
X1387Y412D02*
X1420Y412D01*
X1331Y411D02*
X1366Y411D01*
X1385Y411D02*
X1420Y411D01*
X1331Y410D02*
X1368Y410D01*
X1383Y410D02*
X1420Y410D01*
X1331Y409D02*
X1371Y409D01*
X1380Y409D02*
X1420Y409D01*
X1331Y408D02*
X1420Y408D01*
X1331Y407D02*
X1420Y407D01*
X1331Y406D02*
X1420Y406D01*
X1331Y405D02*
X1420Y405D01*
X1331Y404D02*
X1420Y404D01*
X1331Y403D02*
X1420Y403D01*
X1331Y402D02*
X1420Y402D01*
X1331Y401D02*
X1420Y401D01*
X1331Y400D02*
X1420Y400D01*
X1331Y399D02*
X1420Y399D01*
X1331Y398D02*
X1420Y398D01*
X1331Y397D02*
X1420Y397D01*
X1331Y396D02*
X1420Y396D01*
X1331Y395D02*
X1420Y395D01*
X1331Y394D02*
X1420Y394D01*
X1331Y393D02*
X1420Y393D01*
X1331Y392D02*
X1420Y392D01*
X1331Y391D02*
X1420Y391D01*
X1331Y390D02*
X1420Y390D01*
X1331Y389D02*
X1420Y389D01*
X1331Y388D02*
X1420Y388D01*
X1331Y387D02*
X1420Y387D01*
X1331Y386D02*
X1420Y386D01*
X1331Y385D02*
X1420Y385D01*
X1331Y384D02*
X1420Y384D01*
X1331Y383D02*
X1420Y383D01*
D02*
G04 End of Mask1*
M02*