; NON-PLATED HOLES START AT T1
; THROUGH (PLATED) HOLES START AT T100
M48
INCH
T100C0.047244
T101C0.030000
T102C0.038000
T103C0.015748
T104C0.030600
T105C0.035000
%
T100
X016657Y007268
X013761Y004268
X015209Y004268
X016657Y004268
X013761Y007268
X015209Y007268
T101
X014761Y014268
X013761Y014268
T102
X006761Y019268
X006761Y020268
X016761Y010268
X013761Y019268
X013761Y020268
X015761Y010268
X014761Y010268
T103
X005160Y025000
X002520Y025960
X018840Y021400
X003720Y011800
T104
X001766Y021263
X020761Y013268
X000771Y024258
X001766Y024258
X019766Y012268
X019766Y017263
X000771Y013268
X001766Y013268
X020761Y007273
X019766Y006273
X002766Y013268
X000771Y007273
X020761Y022258
X001766Y007273
X019766Y023263
X019766Y026253
X000771Y022258
X001766Y022258
X019766Y010268
X020761Y016263
X000771Y016263
X019766Y015268
X019766Y018258
X001766Y016263
X020761Y005278
X020761Y008268
X019766Y004278
X002766Y016263
X019766Y009273
X000771Y005278
X000771Y008268
X001766Y005278
X001766Y008268
X019766Y021263
X020761Y025258
X020761Y011273
X020761Y014263
X019766Y024258
X000771Y025258
X000771Y011273
X000771Y014263
X001766Y025258
X019766Y013268
X001766Y011273
X001766Y014263
X020761Y019268
X002766Y014263
X019766Y007273
X020761Y020263
X000771Y019268
X001766Y019268
X000771Y020263
X019766Y022258
X001766Y020263
X020761Y012268
X020761Y017263
X019766Y016263
X000771Y012268
X001766Y012268
X020761Y006273
X000771Y017263
X001766Y017263
X002766Y012268
X000771Y006273
X019766Y005278
X019766Y008268
X001766Y006273
X002766Y017263
X020761Y023263
X020761Y026253
X020761Y010268
X000771Y023263
X000771Y026253
X019766Y025258
X001766Y023263
X001766Y026253
X019766Y011273
X019766Y014263
X000771Y010268
X020761Y015268
X020761Y018258
X001766Y010268
X020761Y004278
X000771Y015268
X000771Y018258
X001766Y015268
X001766Y018258
X020761Y009273
X019766Y019268
X020761Y021263
X000771Y004278
X001766Y004278
X002766Y015268
X019766Y020263
X000771Y009273
X020761Y024258
X001766Y009273
X000771Y021263
T105
X011761Y020268
X011761Y010268
X007761Y010268
X008761Y018268
X011761Y018268
X006761Y007268
X008761Y022268
X011761Y022268
X006761Y004268
X002761Y007268
X002761Y004268
X008761Y017268
X011761Y017268
X008761Y021268
X011761Y021268
X006761Y010268
X011761Y007268
X007761Y007268
X011761Y004268
X007761Y004268
X002761Y010268
X008761Y019268
X011761Y019268
X008761Y023268
X008761Y016268
X011761Y023268
X011761Y016268
X008761Y020268
T00
M30
