G04 MADE WITH FRITZING*
G04 WWW.FRITZING.ORG*
G04 DOUBLE SIDED*
G04 HOLES PLATED*
G04 CONTOUR ON CENTER OF CONTOUR VECTOR*
%ASAXBY*%
%FSLAX23Y23*%
%MOIN*%
%OFA0B0*%
%SFA1.0B1.0*%
%ADD10C,0.008*%
%LNCONTOUR*%
G90*
G70*
G54D10*
X229Y3400D02*
X230Y3400D01*
X231Y3400D01*
X232Y3400D01*
X233Y3400D01*
X234Y3400D01*
X235Y3400D01*
X236Y3400D01*
X237Y3400D01*
X238Y3400D01*
X239Y3400D01*
X240Y3400D01*
X241Y3400D01*
X242Y3400D01*
X243Y3400D01*
X244Y3400D01*
X245Y3400D01*
X246Y3400D01*
X247Y3400D01*
X248Y3400D01*
X249Y3400D01*
X250Y3400D01*
X251Y3400D01*
X252Y3400D01*
X253Y3400D01*
X254Y3400D01*
X255Y3400D01*
X256Y3400D01*
X257Y3400D01*
X258Y3400D01*
X259Y3400D01*
X260Y3400D01*
X261Y3400D01*
X262Y3400D01*
X263Y3400D01*
X264Y3400D01*
X265Y3400D01*
X266Y3400D01*
X267Y3400D01*
X268Y3400D01*
X269Y3400D01*
X270Y3400D01*
X271Y3400D01*
X272Y3400D01*
X273Y3400D01*
X274Y3400D01*
X275Y3400D01*
X276Y3400D01*
X277Y3400D01*
X278Y3400D01*
X279Y3400D01*
X280Y3400D01*
X281Y3400D01*
X282Y3400D01*
X283Y3400D01*
X284Y3400D01*
X285Y3400D01*
X286Y3400D01*
X287Y3400D01*
X288Y3400D01*
X289Y3400D01*
X290Y3400D01*
X291Y3400D01*
X292Y3400D01*
X293Y3400D01*
X294Y3400D01*
X295Y3400D01*
X296Y3400D01*
X297Y3400D01*
X298Y3400D01*
X299Y3400D01*
X300Y3400D01*
X301Y3400D01*
X302Y3400D01*
X303Y3400D01*
X304Y3400D01*
X305Y3400D01*
X306Y3400D01*
X307Y3400D01*
X308Y3400D01*
X309Y3400D01*
X310Y3400D01*
X311Y3400D01*
X312Y3400D01*
X313Y3400D01*
X314Y3400D01*
X315Y3400D01*
X316Y3400D01*
X317Y3400D01*
X318Y3400D01*
X319Y3400D01*
X320Y3400D01*
X321Y3400D01*
X322Y3400D01*
X323Y3400D01*
X324Y3400D01*
X325Y3400D01*
X326Y3400D01*
X327Y3400D01*
X328Y3400D01*
X329Y3400D01*
X330Y3400D01*
X331Y3400D01*
X332Y3400D01*
X333Y3400D01*
X334Y3400D01*
X335Y3400D01*
X336Y3400D01*
X337Y3400D01*
X338Y3400D01*
X339Y3400D01*
X340Y3400D01*
X341Y3400D01*
X342Y3400D01*
X343Y3400D01*
X344Y3400D01*
X345Y3400D01*
X346Y3400D01*
X347Y3400D01*
X348Y3400D01*
X349Y3400D01*
X350Y3400D01*
X351Y3400D01*
X352Y3400D01*
X353Y3400D01*
X354Y3400D01*
X355Y3400D01*
X356Y3400D01*
X357Y3400D01*
X358Y3400D01*
X359Y3400D01*
X360Y3400D01*
X361Y3400D01*
X362Y3400D01*
X363Y3400D01*
X364Y3400D01*
X365Y3400D01*
X366Y3400D01*
X367Y3400D01*
X368Y3400D01*
X369Y3400D01*
X370Y3400D01*
X371Y3400D01*
X372Y3400D01*
X373Y3400D01*
X374Y3400D01*
X375Y3400D01*
X376Y3400D01*
X377Y3400D01*
X378Y3400D01*
X379Y3400D01*
X380Y3400D01*
X381Y3400D01*
X382Y3400D01*
X383Y3400D01*
X384Y3400D01*
X385Y3400D01*
X386Y3400D01*
X387Y3400D01*
X388Y3400D01*
X389Y3400D01*
X390Y3400D01*
X391Y3400D01*
X392Y3400D01*
X393Y3400D01*
X394Y3400D01*
X395Y3400D01*
X396Y3400D01*
X397Y3400D01*
X398Y3400D01*
X399Y3400D01*
X400Y3400D01*
X401Y3400D01*
X402Y3400D01*
X403Y3400D01*
X404Y3400D01*
X405Y3400D01*
X406Y3400D01*
X407Y3400D01*
X408Y3400D01*
X409Y3400D01*
X410Y3400D01*
X411Y3400D01*
X412Y3400D01*
X413Y3400D01*
X414Y3400D01*
X415Y3400D01*
X416Y3400D01*
X417Y3400D01*
X418Y3400D01*
X419Y3400D01*
X420Y3400D01*
X421Y3400D01*
X422Y3400D01*
X423Y3400D01*
X424Y3400D01*
X425Y3400D01*
X426Y3400D01*
X427Y3400D01*
X428Y3400D01*
X429Y3400D01*
X430Y3400D01*
X431Y3400D01*
X432Y3400D01*
X433Y3400D01*
X434Y3400D01*
X435Y3400D01*
X436Y3400D01*
X437Y3400D01*
X438Y3400D01*
X439Y3400D01*
X440Y3400D01*
X441Y3400D01*
X442Y3400D01*
X443Y3400D01*
X444Y3400D01*
X445Y3400D01*
X446Y3400D01*
X447Y3400D01*
X448Y3400D01*
X449Y3400D01*
X450Y3400D01*
X451Y3400D01*
X452Y3400D01*
X453Y3400D01*
X454Y3400D01*
X455Y3400D01*
X456Y3400D01*
X457Y3400D01*
X458Y3400D01*
X459Y3400D01*
X460Y3400D01*
X461Y3400D01*
X462Y3400D01*
X463Y3400D01*
X464Y3400D01*
X465Y3400D01*
X466Y3400D01*
X467Y3400D01*
X468Y3400D01*
X469Y3400D01*
X470Y3400D01*
X471Y3400D01*
X472Y3400D01*
X473Y3400D01*
X474Y3400D01*
X475Y3400D01*
X476Y3400D01*
X477Y3400D01*
X478Y3400D01*
X479Y3400D01*
X480Y3400D01*
X481Y3400D01*
X482Y3400D01*
X483Y3400D01*
X484Y3400D01*
X485Y3400D01*
X486Y3400D01*
X487Y3400D01*
X488Y3400D01*
X489Y3400D01*
X490Y3400D01*
X491Y3400D01*
X492Y3400D01*
X493Y3400D01*
X494Y3400D01*
X495Y3400D01*
X496Y3400D01*
X497Y3400D01*
X498Y3400D01*
X499Y3400D01*
X500Y3400D01*
X501Y3400D01*
X502Y3400D01*
X503Y3400D01*
X504Y3400D01*
X505Y3400D01*
X506Y3400D01*
X507Y3400D01*
X508Y3400D01*
X509Y3400D01*
X510Y3400D01*
X511Y3400D01*
X512Y3400D01*
X513Y3400D01*
X514Y3400D01*
X515Y3400D01*
X516Y3400D01*
X517Y3400D01*
X518Y3400D01*
X519Y3400D01*
X520Y3400D01*
X521Y3400D01*
X522Y3400D01*
X523Y3400D01*
X524Y3400D01*
X525Y3400D01*
X526Y3400D01*
X527Y3400D01*
X528Y3400D01*
X529Y3400D01*
X530Y3400D01*
X531Y3400D01*
X532Y3400D01*
X533Y3400D01*
X534Y3400D01*
X535Y3400D01*
X536Y3400D01*
X537Y3400D01*
X538Y3400D01*
X539Y3400D01*
X540Y3400D01*
X541Y3400D01*
X542Y3400D01*
X543Y3400D01*
X544Y3400D01*
X545Y3400D01*
X546Y3400D01*
X547Y3400D01*
X548Y3400D01*
X549Y3400D01*
X550Y3400D01*
X551Y3400D01*
X552Y3400D01*
X553Y3400D01*
X554Y3400D01*
X555Y3400D01*
X556Y3400D01*
X557Y3400D01*
X558Y3400D01*
X559Y3400D01*
X560Y3400D01*
X561Y3400D01*
X562Y3400D01*
X563Y3400D01*
X564Y3400D01*
X565Y3400D01*
X566Y3400D01*
X567Y3400D01*
X568Y3400D01*
X569Y3400D01*
X570Y3400D01*
X571Y3400D01*
X572Y3400D01*
X573Y3400D01*
X574Y3400D01*
X575Y3400D01*
X576Y3400D01*
X577Y3400D01*
X578Y3400D01*
X579Y3400D01*
X580Y3400D01*
X581Y3400D01*
X582Y3400D01*
X583Y3400D01*
X584Y3400D01*
X585Y3400D01*
X586Y3400D01*
X587Y3400D01*
X588Y3400D01*
X589Y3400D01*
X590Y3400D01*
X591Y3400D01*
X592Y3400D01*
X593Y3400D01*
X594Y3400D01*
X595Y3400D01*
X596Y3400D01*
X597Y3400D01*
X598Y3400D01*
X599Y3400D01*
X600Y3400D01*
X601Y3400D01*
X602Y3400D01*
X603Y3400D01*
X604Y3400D01*
X605Y3400D01*
X606Y3400D01*
X607Y3400D01*
X608Y3400D01*
X609Y3400D01*
X610Y3400D01*
X611Y3400D01*
X612Y3400D01*
X613Y3400D01*
X614Y3400D01*
X615Y3400D01*
X616Y3400D01*
X617Y3400D01*
X618Y3400D01*
X619Y3400D01*
X620Y3400D01*
X621Y3400D01*
X622Y3400D01*
X623Y3400D01*
X624Y3400D01*
X625Y3400D01*
X626Y3400D01*
X627Y3400D01*
X628Y3400D01*
X629Y3400D01*
X630Y3400D01*
X631Y3400D01*
X632Y3400D01*
X633Y3400D01*
X634Y3400D01*
X635Y3400D01*
X636Y3400D01*
X637Y3400D01*
X638Y3400D01*
X639Y3400D01*
X640Y3400D01*
X641Y3400D01*
X642Y3400D01*
X643Y3400D01*
X644Y3400D01*
X645Y3400D01*
X646Y3400D01*
X647Y3400D01*
X648Y3400D01*
X649Y3400D01*
X650Y3400D01*
X651Y3400D01*
X652Y3400D01*
X653Y3400D01*
X654Y3400D01*
X655Y3400D01*
X656Y3400D01*
X657Y3400D01*
X658Y3400D01*
X659Y3400D01*
X660Y3400D01*
X661Y3400D01*
X662Y3400D01*
X663Y3400D01*
X664Y3400D01*
X665Y3400D01*
X666Y3400D01*
X667Y3400D01*
X668Y3400D01*
X669Y3400D01*
X670Y3400D01*
X671Y3400D01*
X672Y3400D01*
X673Y3400D01*
X674Y3400D01*
X675Y3400D01*
X676Y3400D01*
X677Y3400D01*
X678Y3400D01*
X679Y3400D01*
X680Y3400D01*
X681Y3400D01*
X682Y3400D01*
X683Y3400D01*
X684Y3400D01*
X685Y3400D01*
X686Y3400D01*
X687Y3400D01*
X688Y3400D01*
X689Y3400D01*
X690Y3400D01*
X691Y3400D01*
X692Y3400D01*
X693Y3400D01*
X694Y3400D01*
X695Y3400D01*
X696Y3400D01*
X697Y3400D01*
X698Y3400D01*
X699Y3400D01*
X700Y3400D01*
X701Y3400D01*
X702Y3400D01*
X703Y3400D01*
X704Y3400D01*
X705Y3400D01*
X706Y3400D01*
X707Y3400D01*
X708Y3400D01*
X709Y3400D01*
X710Y3400D01*
X711Y3400D01*
X712Y3400D01*
X713Y3400D01*
X714Y3400D01*
X715Y3400D01*
X716Y3400D01*
X717Y3400D01*
X718Y3400D01*
X719Y3400D01*
X720Y3400D01*
X721Y3400D01*
X722Y3400D01*
X723Y3400D01*
X724Y3400D01*
X725Y3400D01*
X726Y3400D01*
X727Y3400D01*
X728Y3400D01*
X729Y3400D01*
X730Y3400D01*
X731Y3400D01*
X732Y3400D01*
X733Y3400D01*
X734Y3400D01*
X735Y3400D01*
X736Y3400D01*
X737Y3400D01*
X738Y3400D01*
X739Y3400D01*
X740Y3400D01*
X741Y3400D01*
X742Y3400D01*
X743Y3400D01*
X744Y3400D01*
X745Y3400D01*
X746Y3400D01*
X747Y3400D01*
X748Y3400D01*
X749Y3400D01*
X750Y3400D01*
X751Y3400D01*
X752Y3400D01*
X753Y3400D01*
X754Y3400D01*
X755Y3400D01*
X756Y3400D01*
X757Y3400D01*
X758Y3400D01*
X759Y3400D01*
X760Y3400D01*
X761Y3400D01*
X762Y3400D01*
X763Y3400D01*
X764Y3400D01*
X765Y3400D01*
X766Y3400D01*
X767Y3400D01*
X768Y3400D01*
X769Y3400D01*
X770Y3400D01*
X771Y3400D01*
X772Y3400D01*
X773Y3400D01*
X774Y3400D01*
X775Y3400D01*
X776Y3400D01*
X777Y3400D01*
X778Y3400D01*
X779Y3400D01*
X780Y3400D01*
X781Y3400D01*
X782Y3400D01*
X783Y3400D01*
X784Y3400D01*
X785Y3400D01*
X786Y3400D01*
X787Y3400D01*
X788Y3400D01*
X789Y3400D01*
X790Y3400D01*
X791Y3400D01*
X792Y3400D01*
X793Y3400D01*
X794Y3400D01*
X795Y3400D01*
X796Y3400D01*
X797Y3400D01*
X798Y3400D01*
X799Y3400D01*
X800Y3400D01*
X801Y3400D01*
X802Y3400D01*
X803Y3400D01*
X804Y3400D01*
X805Y3400D01*
X806Y3400D01*
X807Y3400D01*
X808Y3400D01*
X809Y3400D01*
X810Y3400D01*
X811Y3400D01*
X812Y3400D01*
X813Y3400D01*
X814Y3400D01*
X815Y3400D01*
X816Y3400D01*
X817Y3400D01*
X818Y3400D01*
X819Y3400D01*
X820Y3400D01*
X821Y3400D01*
X821Y2594D01*
X822Y2593D01*
X822Y2586D01*
X823Y2585D01*
X823Y2581D01*
X824Y2580D01*
X824Y2577D01*
X825Y2576D01*
X825Y2575D01*
X826Y2574D01*
X826Y2572D01*
X827Y2571D01*
X827Y2570D01*
X828Y2569D01*
X828Y2568D01*
X829Y2567D01*
X829Y2566D01*
X830Y2565D01*
X831Y2564D01*
X832Y2563D01*
X832Y2562D01*
X833Y2561D01*
X834Y2560D01*
X835Y2559D01*
X836Y2558D01*
X837Y2557D01*
X838Y2556D01*
X839Y2555D01*
X840Y2555D01*
X841Y2554D01*
X842Y2553D01*
X843Y2553D01*
X844Y2552D01*
X845Y2551D01*
X846Y2551D01*
X847Y2550D01*
X848Y2550D01*
X849Y2549D01*
X850Y2549D01*
X851Y2549D01*
X852Y2548D01*
X853Y2548D01*
X854Y2548D01*
X855Y2547D01*
X856Y2547D01*
X857Y2547D01*
X858Y2547D01*
X859Y2546D01*
X860Y2546D01*
X861Y2546D01*
X862Y2546D01*
X863Y2546D01*
X864Y2545D01*
X865Y2545D01*
X866Y2545D01*
X867Y2545D01*
X868Y2545D01*
X869Y2545D01*
X870Y2545D01*
X871Y2545D01*
X872Y2545D01*
X873Y2545D01*
X874Y2545D01*
X875Y2545D01*
X876Y2544D01*
X877Y2544D01*
X878Y2544D01*
X879Y2544D01*
X880Y2544D01*
X881Y2544D01*
X882Y2544D01*
X883Y2544D01*
X884Y2544D01*
X885Y2544D01*
X886Y2544D01*
X887Y2544D01*
X888Y2544D01*
X889Y2544D01*
X890Y2544D01*
X891Y2544D01*
X892Y2544D01*
X893Y2544D01*
X894Y2544D01*
X895Y2544D01*
X896Y2544D01*
X897Y2544D01*
X898Y2544D01*
X899Y2544D01*
X900Y2544D01*
X901Y2544D01*
X902Y2544D01*
X903Y2544D01*
X904Y2544D01*
X905Y2544D01*
X906Y2544D01*
X907Y2544D01*
X908Y2544D01*
X909Y2544D01*
X910Y2544D01*
X911Y2544D01*
X912Y2544D01*
X913Y2544D01*
X914Y2544D01*
X915Y2544D01*
X916Y2544D01*
X917Y2544D01*
X918Y2544D01*
X919Y2544D01*
X920Y2544D01*
X921Y2544D01*
X922Y2544D01*
X923Y2544D01*
X924Y2544D01*
X925Y2544D01*
X926Y2544D01*
X927Y2544D01*
X928Y2544D01*
X929Y2544D01*
X930Y2544D01*
X931Y2544D01*
X932Y2544D01*
X933Y2544D01*
X934Y2544D01*
X935Y2544D01*
X936Y2544D01*
X937Y2544D01*
X938Y2544D01*
X939Y2544D01*
X940Y2544D01*
X941Y2544D01*
X942Y2544D01*
X943Y2544D01*
X944Y2544D01*
X945Y2544D01*
X946Y2544D01*
X947Y2544D01*
X948Y2544D01*
X949Y2544D01*
X950Y2544D01*
X951Y2544D01*
X952Y2544D01*
X953Y2544D01*
X954Y2544D01*
X955Y2544D01*
X956Y2544D01*
X957Y2544D01*
X958Y2544D01*
X959Y2544D01*
X960Y2544D01*
X961Y2544D01*
X962Y2544D01*
X963Y2544D01*
X964Y2544D01*
X965Y2544D01*
X966Y2544D01*
X967Y2544D01*
X968Y2544D01*
X969Y2544D01*
X970Y2544D01*
X971Y2544D01*
X972Y2544D01*
X973Y2544D01*
X974Y2544D01*
X975Y2544D01*
X976Y2544D01*
X977Y2544D01*
X978Y2544D01*
X979Y2544D01*
X980Y2544D01*
X981Y2544D01*
X982Y2544D01*
X983Y2544D01*
X984Y2544D01*
X985Y2544D01*
X986Y2544D01*
X987Y2544D01*
X988Y2544D01*
X989Y2544D01*
X990Y2544D01*
X991Y2544D01*
X992Y2544D01*
X993Y2544D01*
X994Y2544D01*
X995Y2544D01*
X996Y2544D01*
X997Y2544D01*
X998Y2544D01*
X999Y2544D01*
X1000Y2544D01*
X1001Y2544D01*
X1002Y2544D01*
X1003Y2544D01*
X1004Y2544D01*
X1005Y2544D01*
X1006Y2544D01*
X1007Y2544D01*
X1008Y2544D01*
X1009Y2544D01*
X1010Y2544D01*
X1011Y2544D01*
X1012Y2544D01*
X1013Y2544D01*
X1014Y2544D01*
X1015Y2544D01*
X1016Y2544D01*
X1017Y2544D01*
X1018Y2544D01*
X1019Y2544D01*
X1020Y2544D01*
X1021Y2544D01*
X1022Y2544D01*
X1023Y2544D01*
X1024Y2544D01*
X1025Y2544D01*
X1026Y2544D01*
X1027Y2544D01*
X1028Y2544D01*
X1029Y2544D01*
X1030Y2544D01*
X1031Y2544D01*
X1032Y2544D01*
X1033Y2544D01*
X1034Y2544D01*
X1035Y2544D01*
X1036Y2544D01*
X1037Y2544D01*
X1038Y2544D01*
X1039Y2544D01*
X1040Y2544D01*
X1041Y2544D01*
X1042Y2544D01*
X1043Y2544D01*
X1044Y2544D01*
X1045Y2544D01*
X1046Y2544D01*
X1047Y2544D01*
X1048Y2544D01*
X1049Y2544D01*
X1050Y2544D01*
X1051Y2544D01*
X1052Y2544D01*
X1053Y2544D01*
X1054Y2544D01*
X1055Y2544D01*
X1056Y2544D01*
X1057Y2544D01*
X1058Y2544D01*
X1059Y2544D01*
X1060Y2544D01*
X1061Y2544D01*
X1062Y2544D01*
X1063Y2544D01*
X1064Y2544D01*
X1065Y2544D01*
X1066Y2544D01*
X1067Y2544D01*
X1068Y2544D01*
X1069Y2544D01*
X1070Y2544D01*
X1071Y2544D01*
X1072Y2544D01*
X1073Y2544D01*
X1074Y2544D01*
X1075Y2544D01*
X1076Y2544D01*
X1077Y2544D01*
X1078Y2544D01*
X1079Y2544D01*
X1080Y2544D01*
X1081Y2544D01*
X1082Y2544D01*
X1083Y2544D01*
X1084Y2544D01*
X1085Y2544D01*
X1086Y2544D01*
X1087Y2544D01*
X1088Y2544D01*
X1089Y2544D01*
X1090Y2544D01*
X1091Y2544D01*
X1092Y2544D01*
X1093Y2544D01*
X1094Y2544D01*
X1095Y2544D01*
X1096Y2544D01*
X1097Y2544D01*
X1098Y2544D01*
X1099Y2544D01*
X1100Y2544D01*
X1101Y2544D01*
X1102Y2544D01*
X1103Y2544D01*
X1104Y2544D01*
X1105Y2544D01*
X1106Y2544D01*
X1107Y2544D01*
X1108Y2544D01*
X1109Y2544D01*
X1110Y2544D01*
X1111Y2544D01*
X1112Y2544D01*
X1113Y2544D01*
X1114Y2544D01*
X1115Y2544D01*
X1116Y2544D01*
X1117Y2544D01*
X1118Y2544D01*
X1119Y2544D01*
X1120Y2544D01*
X1121Y2544D01*
X1122Y2544D01*
X1123Y2544D01*
X1124Y2544D01*
X1125Y2544D01*
X1126Y2544D01*
X1127Y2544D01*
X1128Y2544D01*
X1129Y2544D01*
X1130Y2544D01*
X1131Y2544D01*
X1132Y2544D01*
X1133Y2544D01*
X1134Y2544D01*
X1135Y2544D01*
X1136Y2544D01*
X1137Y2544D01*
X1138Y2544D01*
X1139Y2544D01*
X1140Y2544D01*
X1141Y2544D01*
X1142Y2544D01*
X1143Y2544D01*
X1144Y2544D01*
X1145Y2544D01*
X1146Y2544D01*
X1147Y2544D01*
X1148Y2544D01*
X1149Y2544D01*
X1150Y2544D01*
X1151Y2544D01*
X1152Y2544D01*
X1153Y2544D01*
X1154Y2544D01*
X1155Y2544D01*
X1156Y2544D01*
X1157Y2544D01*
X1158Y2544D01*
X1159Y2544D01*
X1160Y2544D01*
X1161Y2544D01*
X1162Y2544D01*
X1163Y2544D01*
X1164Y2544D01*
X1165Y2544D01*
X1166Y2544D01*
X1167Y2544D01*
X1168Y2544D01*
X1169Y2544D01*
X1170Y2544D01*
X1171Y2544D01*
X1172Y2544D01*
X1173Y2544D01*
X1174Y2544D01*
X1175Y2544D01*
X1176Y2544D01*
X1177Y2544D01*
X1178Y2544D01*
X1179Y2544D01*
X1180Y2544D01*
X1181Y2544D01*
X1182Y2544D01*
X1183Y2544D01*
X1184Y2544D01*
X1185Y2544D01*
X1186Y2544D01*
X1187Y2544D01*
X1188Y2544D01*
X1189Y2544D01*
X1190Y2544D01*
X1191Y2544D01*
X1192Y2544D01*
X1193Y2544D01*
X1194Y2544D01*
X1195Y2544D01*
X1196Y2544D01*
X1197Y2544D01*
X1198Y2544D01*
X1199Y2544D01*
X1200Y2544D01*
X1201Y2544D01*
X1202Y2544D01*
X1203Y2544D01*
X1204Y2544D01*
X1205Y2544D01*
X1206Y2544D01*
X1207Y2544D01*
X1208Y2544D01*
X1209Y2544D01*
X1210Y2544D01*
X1211Y2544D01*
X1212Y2544D01*
X1213Y2544D01*
X1214Y2544D01*
X1215Y2544D01*
X1216Y2544D01*
X1217Y2544D01*
X1218Y2544D01*
X1219Y2544D01*
X1220Y2544D01*
X1221Y2544D01*
X1222Y2544D01*
X1223Y2544D01*
X1224Y2544D01*
X1225Y2544D01*
X1226Y2544D01*
X1227Y2544D01*
X1228Y2544D01*
X1229Y2544D01*
X1230Y2544D01*
X1231Y2544D01*
X1232Y2544D01*
X1233Y2544D01*
X1234Y2544D01*
X1235Y2544D01*
X1236Y2544D01*
X1237Y2544D01*
X1238Y2544D01*
X1239Y2544D01*
X1240Y2544D01*
X1241Y2544D01*
X1242Y2544D01*
X1243Y2544D01*
X1244Y2544D01*
X1245Y2544D01*
X1246Y2544D01*
X1247Y2544D01*
X1248Y2544D01*
X1249Y2544D01*
X1250Y2544D01*
X1251Y2544D01*
X1252Y2544D01*
X1253Y2544D01*
X1254Y2544D01*
X1255Y2544D01*
X1256Y2544D01*
X1257Y2544D01*
X1258Y2544D01*
X1259Y2544D01*
X1260Y2544D01*
X1261Y2544D01*
X1262Y2544D01*
X1263Y2544D01*
X1264Y2544D01*
X1265Y2544D01*
X1266Y2544D01*
X1267Y2544D01*
X1268Y2544D01*
X1269Y2544D01*
X1270Y2544D01*
X1271Y2544D01*
X1272Y2544D01*
X1273Y2544D01*
X1274Y2544D01*
X1275Y2544D01*
X1276Y2544D01*
X1277Y2544D01*
X1278Y2544D01*
X1279Y2544D01*
X1280Y2544D01*
X1281Y2544D01*
X1282Y2544D01*
X1283Y2544D01*
X1284Y2544D01*
X1285Y2544D01*
X1286Y2544D01*
X1287Y2544D01*
X1288Y2544D01*
X1289Y2544D01*
X1290Y2544D01*
X1291Y2544D01*
X1292Y2544D01*
X1293Y2544D01*
X1294Y2544D01*
X1295Y2544D01*
X1296Y2544D01*
X1297Y2544D01*
X1298Y2544D01*
X1299Y2544D01*
X1300Y2544D01*
X1301Y2544D01*
X1302Y2544D01*
X1303Y2544D01*
X1304Y2544D01*
X1305Y2544D01*
X1306Y2544D01*
X1307Y2544D01*
X1308Y2544D01*
X1309Y2544D01*
X1310Y2544D01*
X1311Y2544D01*
X1312Y2544D01*
X1313Y2544D01*
X1314Y2544D01*
X1315Y2544D01*
X1316Y2544D01*
X1317Y2544D01*
X1318Y2544D01*
X1319Y2544D01*
X1320Y2544D01*
X1321Y2544D01*
X1322Y2544D01*
X1323Y2544D01*
X1324Y2544D01*
X1325Y2544D01*
X1326Y2544D01*
X1327Y2544D01*
X1328Y2544D01*
X1329Y2544D01*
X1330Y2544D01*
X1331Y2544D01*
X1332Y2544D01*
X1333Y2544D01*
X1334Y2544D01*
X1335Y2544D01*
X1336Y2544D01*
X1337Y2544D01*
X1338Y2544D01*
X1339Y2544D01*
X1340Y2544D01*
X1341Y2544D01*
X1342Y2544D01*
X1343Y2544D01*
X1344Y2544D01*
X1345Y2544D01*
X1346Y2544D01*
X1347Y2544D01*
X1348Y2544D01*
X1349Y2544D01*
X1350Y2544D01*
X1351Y2544D01*
X1352Y2544D01*
X1353Y2544D01*
X1354Y2544D01*
X1355Y2544D01*
X1356Y2544D01*
X1357Y2544D01*
X1358Y2544D01*
X1359Y2544D01*
X1360Y2544D01*
X1361Y2544D01*
X1362Y2544D01*
X1363Y2544D01*
X1364Y2544D01*
X1365Y2544D01*
X1366Y2544D01*
X1367Y2544D01*
X1368Y2544D01*
X1369Y2544D01*
X1370Y2544D01*
X1371Y2544D01*
X1372Y2544D01*
X1373Y2544D01*
X1374Y2544D01*
X1375Y2544D01*
X1376Y2544D01*
X1377Y2544D01*
X1378Y2544D01*
X1379Y2544D01*
X1380Y2544D01*
X1381Y2544D01*
X1382Y2544D01*
X1383Y2544D01*
X1384Y2544D01*
X1385Y2544D01*
X1386Y2544D01*
X1387Y2544D01*
X1388Y2544D01*
X1389Y2544D01*
X1390Y2544D01*
X1391Y2544D01*
X1392Y2544D01*
X1393Y2544D01*
X1394Y2544D01*
X1395Y2544D01*
X1396Y2544D01*
X1397Y2544D01*
X1398Y2544D01*
X1399Y2544D01*
X1400Y2544D01*
X1401Y2544D01*
X1402Y2544D01*
X1403Y2544D01*
X1404Y2544D01*
X1405Y2544D01*
X1406Y2544D01*
X1407Y2544D01*
X1408Y2544D01*
X1409Y2544D01*
X1410Y2544D01*
X1411Y2544D01*
X1412Y2544D01*
X1413Y2544D01*
X1414Y2544D01*
X1415Y2544D01*
X1416Y2544D01*
X1417Y2544D01*
X1418Y2544D01*
X1419Y2544D01*
X1420Y2544D01*
X1421Y2544D01*
X1422Y2544D01*
X1423Y2544D01*
X1424Y2544D01*
X1425Y2544D01*
X1426Y2544D01*
X1427Y2544D01*
X1428Y2544D01*
X1429Y2544D01*
X1430Y2544D01*
X1431Y2544D01*
X1432Y2544D01*
X1433Y2544D01*
X1434Y2544D01*
X1435Y2544D01*
X1436Y2544D01*
X1437Y2544D01*
X1438Y2544D01*
X1439Y2544D01*
X1440Y2544D01*
X1441Y2544D01*
X1442Y2544D01*
X1443Y2544D01*
X1444Y2544D01*
X1445Y2544D01*
X1446Y2544D01*
X1447Y2544D01*
X1448Y2544D01*
X1449Y2544D01*
X1450Y2544D01*
X1451Y2544D01*
X1452Y2544D01*
X1453Y2544D01*
X1454Y2544D01*
X1455Y2544D01*
X1456Y2544D01*
X1457Y2544D01*
X1458Y2544D01*
X1459Y2544D01*
X1460Y2544D01*
X1461Y2544D01*
X1462Y2544D01*
X1463Y2544D01*
X1464Y2544D01*
X1465Y2544D01*
X1466Y2544D01*
X1467Y2544D01*
X1468Y2544D01*
X1469Y2544D01*
X1470Y2544D01*
X1471Y2544D01*
X1472Y2544D01*
X1473Y2544D01*
X1474Y2545D01*
X1475Y2545D01*
X1476Y2545D01*
X1477Y2545D01*
X1478Y2545D01*
X1479Y2545D01*
X1480Y2545D01*
X1481Y2545D01*
X1482Y2545D01*
X1483Y2545D01*
X1484Y2545D01*
X1485Y2545D01*
X1486Y2546D01*
X1487Y2546D01*
X1488Y2546D01*
X1489Y2546D01*
X1490Y2546D01*
X1491Y2547D01*
X1492Y2547D01*
X1493Y2547D01*
X1494Y2547D01*
X1495Y2548D01*
X1496Y2548D01*
X1497Y2548D01*
X1498Y2549D01*
X1499Y2549D01*
X1500Y2549D01*
X1501Y2550D01*
X1502Y2550D01*
X1503Y2551D01*
X1504Y2551D01*
X1505Y2552D01*
X1506Y2553D01*
X1507Y2553D01*
X1508Y2554D01*
X1509Y2555D01*
X1510Y2555D01*
X1511Y2556D01*
X1512Y2557D01*
X1513Y2558D01*
X1514Y2559D01*
X1515Y2560D01*
X1516Y2561D01*
X1517Y2562D01*
X1517Y2563D01*
X1518Y2564D01*
X1519Y2565D01*
X1520Y2566D01*
X1520Y2567D01*
X1521Y2568D01*
X1521Y2569D01*
X1522Y2570D01*
X1522Y2571D01*
X1523Y2572D01*
X1523Y2574D01*
X1524Y2575D01*
X1524Y2576D01*
X1525Y2577D01*
X1525Y2580D01*
X1526Y2581D01*
X1526Y2585D01*
X1527Y2586D01*
X1527Y2593D01*
X1528Y2594D01*
X1528Y3150D01*
X1529Y3150D01*
X1530Y3150D01*
X1531Y3150D01*
X1532Y3150D01*
X1533Y3150D01*
X1534Y3150D01*
X1535Y3150D01*
X1536Y3150D01*
X1537Y3150D01*
X1538Y3150D01*
X1539Y3150D01*
X1540Y3150D01*
X1541Y3150D01*
X1542Y3150D01*
X1543Y3150D01*
X1544Y3150D01*
X1545Y3150D01*
X1546Y3150D01*
X1547Y3150D01*
X1548Y3150D01*
X1549Y3150D01*
X1550Y3150D01*
X1551Y3150D01*
X1552Y3150D01*
X1553Y3150D01*
X1554Y3150D01*
X1555Y3150D01*
X1556Y3150D01*
X1557Y3150D01*
X1558Y3150D01*
X1559Y3150D01*
X1560Y3150D01*
X1561Y3150D01*
X1562Y3150D01*
X1563Y3150D01*
X1564Y3150D01*
X1565Y3150D01*
X1566Y3150D01*
X1567Y3150D01*
X1568Y3150D01*
X1569Y3150D01*
X1570Y3150D01*
X1571Y3150D01*
X1572Y3150D01*
X1573Y3150D01*
X1574Y3150D01*
X1575Y3150D01*
X1576Y3150D01*
X1577Y3150D01*
X1578Y3150D01*
X1579Y3150D01*
X1580Y3150D01*
X1581Y3150D01*
X1582Y3150D01*
X1583Y3150D01*
X1584Y3150D01*
X1585Y3150D01*
X1586Y3150D01*
X1587Y3150D01*
X1588Y3150D01*
X1589Y3150D01*
X1590Y3150D01*
X1591Y3150D01*
X1592Y3150D01*
X1593Y3150D01*
X1594Y3150D01*
X1595Y3150D01*
X1596Y3150D01*
X1597Y3150D01*
X1598Y3150D01*
X1599Y3150D01*
X1600Y3150D01*
X1601Y3150D01*
X1602Y3150D01*
X1603Y3150D01*
X1604Y3150D01*
X1605Y3150D01*
X1606Y3150D01*
X1607Y3150D01*
X1608Y3150D01*
X1609Y3150D01*
X1610Y3150D01*
X1611Y3150D01*
X1612Y3150D01*
X1613Y3150D01*
X1614Y3150D01*
X1615Y3150D01*
X1616Y3150D01*
X1617Y3150D01*
X1618Y3150D01*
X1619Y3150D01*
X1620Y3150D01*
X1621Y3150D01*
X1622Y3150D01*
X1623Y3150D01*
X1624Y3150D01*
X1625Y3150D01*
X1626Y3150D01*
X1627Y3150D01*
X1628Y3150D01*
X1629Y3150D01*
X1630Y3150D01*
X1631Y3150D01*
X1632Y3150D01*
X1633Y3150D01*
X1634Y3150D01*
X1635Y3150D01*
X1636Y3150D01*
X1637Y3150D01*
X1638Y3150D01*
X1639Y3150D01*
X1640Y3150D01*
X1641Y3150D01*
X1642Y3150D01*
X1643Y3150D01*
X1644Y3150D01*
X1645Y3150D01*
X1646Y3150D01*
X1647Y3150D01*
X1648Y3150D01*
X1649Y3150D01*
X1650Y3150D01*
X1651Y3150D01*
X1652Y3150D01*
X1653Y3150D01*
X1654Y3150D01*
X1655Y3150D01*
X1656Y3150D01*
X1657Y3150D01*
X1658Y3150D01*
X1659Y3150D01*
X1660Y3150D01*
X1661Y3150D01*
X1662Y3150D01*
X1663Y3150D01*
X1664Y3150D01*
X1665Y3150D01*
X1666Y3150D01*
X1667Y3150D01*
X1668Y3150D01*
X1669Y3150D01*
X1670Y3150D01*
X1671Y3150D01*
X1672Y3150D01*
X1673Y3150D01*
X1674Y3150D01*
X1675Y3150D01*
X1676Y3150D01*
X1677Y3150D01*
X1678Y3150D01*
X1679Y3150D01*
X1680Y3150D01*
X1681Y3150D01*
X1682Y3150D01*
X1683Y3150D01*
X1684Y3150D01*
X1685Y3150D01*
X1686Y3150D01*
X1687Y3150D01*
X1688Y3150D01*
X1689Y3150D01*
X1690Y3150D01*
X1691Y3150D01*
X1692Y3150D01*
X1693Y3150D01*
X1694Y3150D01*
X1695Y3150D01*
X1696Y3150D01*
X1697Y3150D01*
X1698Y3150D01*
X1699Y3150D01*
X1700Y3150D01*
X1701Y3150D01*
X1702Y3150D01*
X1703Y3150D01*
X1704Y3150D01*
X1705Y3150D01*
X1706Y3150D01*
X1707Y3150D01*
X1708Y3150D01*
X1709Y3150D01*
X1710Y3150D01*
X1711Y3150D01*
X1712Y3150D01*
X1713Y3150D01*
X1714Y3150D01*
X1715Y3150D01*
X1716Y3150D01*
X1717Y3150D01*
X1718Y3150D01*
X1719Y3150D01*
X1720Y3150D01*
X1721Y3150D01*
X1722Y3150D01*
X1723Y3150D01*
X1724Y3150D01*
X1725Y3150D01*
X1726Y3150D01*
X1727Y3150D01*
X1728Y3150D01*
X1729Y3150D01*
X1730Y3150D01*
X1731Y3150D01*
X1732Y3150D01*
X1733Y3150D01*
X1734Y3150D01*
X1735Y3150D01*
X1736Y3150D01*
X1737Y3150D01*
X1738Y3150D01*
X1739Y3150D01*
X1740Y3150D01*
X1741Y3150D01*
X1742Y3150D01*
X1743Y3150D01*
X1744Y3150D01*
X1745Y3150D01*
X1746Y3150D01*
X1747Y3150D01*
X1748Y3150D01*
X1749Y3150D01*
X1750Y3150D01*
X1751Y3150D01*
X1752Y3150D01*
X1753Y3150D01*
X1754Y3150D01*
X1755Y3150D01*
X1756Y3150D01*
X1757Y3150D01*
X1758Y3150D01*
X1759Y3150D01*
X1760Y3150D01*
X1761Y3150D01*
X1762Y3150D01*
X1763Y3150D01*
X1764Y3150D01*
X1765Y3150D01*
X1766Y3150D01*
X1767Y3150D01*
X1768Y3150D01*
X1769Y3150D01*
X1770Y3150D01*
X1771Y3150D01*
X1772Y3150D01*
X1773Y3150D01*
X1774Y3150D01*
X1775Y3150D01*
X1776Y3150D01*
X1777Y3150D01*
X1778Y3150D01*
X1779Y3150D01*
X1780Y3150D01*
X1781Y3150D01*
X1782Y3150D01*
X1783Y3150D01*
X1784Y3150D01*
X1785Y3150D01*
X1786Y3150D01*
X1787Y3150D01*
X1788Y3150D01*
X1789Y3150D01*
X1790Y3150D01*
X1791Y3150D01*
X1792Y3150D01*
X1793Y3150D01*
X1794Y3150D01*
X1795Y3150D01*
X1796Y3150D01*
X1797Y3150D01*
X1798Y3150D01*
X1799Y3150D01*
X1800Y3150D01*
X1801Y3150D01*
X1802Y3150D01*
X1803Y3150D01*
X1804Y3150D01*
X1805Y3150D01*
X1806Y3150D01*
X1807Y3150D01*
X1808Y3150D01*
X1809Y3150D01*
X1810Y3150D01*
X1811Y3150D01*
X1812Y3150D01*
X1813Y3150D01*
X1814Y3150D01*
X1815Y3150D01*
X1816Y3150D01*
X1817Y3150D01*
X1818Y3150D01*
X1819Y3150D01*
X1820Y3150D01*
X1821Y3150D01*
X1822Y3150D01*
X1823Y3150D01*
X1824Y3150D01*
X1825Y3150D01*
X1826Y3150D01*
X1827Y3150D01*
X1828Y3150D01*
X1829Y3150D01*
X1830Y3150D01*
X1831Y3150D01*
X1832Y3150D01*
X1833Y3150D01*
X1834Y3150D01*
X1835Y3150D01*
X1836Y3150D01*
X1837Y3150D01*
X1838Y3150D01*
X1839Y3150D01*
X1840Y3150D01*
X1841Y3150D01*
X1842Y3150D01*
X1843Y3150D01*
X1844Y3150D01*
X1845Y3150D01*
X1846Y3150D01*
X1847Y3150D01*
X1848Y3150D01*
X1849Y3150D01*
X1850Y3150D01*
X1851Y3150D01*
X1852Y3150D01*
X1853Y3150D01*
X1854Y3150D01*
X1855Y3150D01*
X1856Y3150D01*
X1857Y3150D01*
X1858Y3150D01*
X1859Y3150D01*
X1860Y3150D01*
X1861Y3150D01*
X1862Y3150D01*
X1863Y3150D01*
X1864Y3150D01*
X1865Y3150D01*
X1866Y3150D01*
X1867Y3150D01*
X1868Y3150D01*
X1869Y3150D01*
X1870Y3150D01*
X1871Y3150D01*
X1872Y3150D01*
X1873Y3150D01*
X1874Y3150D01*
X1875Y3150D01*
X1876Y3150D01*
X1877Y3150D01*
X1878Y3150D01*
X1879Y3150D01*
X1880Y3150D01*
X1881Y3150D01*
X1882Y3150D01*
X1883Y3150D01*
X1884Y3150D01*
X1885Y3150D01*
X1886Y3150D01*
X1887Y3150D01*
X1888Y3150D01*
X1889Y3150D01*
X1890Y3150D01*
X1891Y3150D01*
X1892Y3150D01*
X1893Y3150D01*
X1894Y3150D01*
X1895Y3150D01*
X1896Y3150D01*
X1897Y3150D01*
X1898Y3150D01*
X1899Y3150D01*
X1900Y3150D01*
X1901Y3150D01*
X1902Y3150D01*
X1903Y3150D01*
X1904Y3150D01*
X1905Y3150D01*
X1906Y3150D01*
X1907Y3150D01*
X1908Y3150D01*
X1909Y3150D01*
X1910Y3150D01*
X1911Y3150D01*
X1912Y3150D01*
X1913Y3150D01*
X1914Y3150D01*
X1915Y3150D01*
X1916Y3150D01*
X1917Y3150D01*
X1918Y3150D01*
X1919Y3150D01*
X1920Y3150D01*
X1921Y3150D01*
X1922Y3150D01*
X1923Y3150D01*
X1924Y3150D01*
X1925Y3150D01*
X1926Y3150D01*
X1927Y3150D01*
X1928Y3150D01*
X1929Y3150D01*
X1930Y3150D01*
X1931Y3150D01*
X1932Y3150D01*
X1933Y3150D01*
X1934Y3150D01*
X1935Y3150D01*
X1936Y3150D01*
X1937Y3150D01*
X1938Y3150D01*
X1939Y3150D01*
X1940Y3150D01*
X1941Y3150D01*
X1942Y3150D01*
X1943Y3150D01*
X1944Y3150D01*
X1945Y3150D01*
X1946Y3150D01*
X1947Y3150D01*
X1948Y3150D01*
X1949Y3150D01*
X1950Y3150D01*
X1951Y3150D01*
X1952Y3150D01*
X1953Y3150D01*
X1954Y3150D01*
X1955Y3150D01*
X1956Y3150D01*
X1957Y3150D01*
X1958Y3150D01*
X1959Y3150D01*
X1960Y3150D01*
X1961Y3150D01*
X1962Y3150D01*
X1963Y3150D01*
X1964Y3150D01*
X1965Y3150D01*
X1966Y3150D01*
X1967Y3150D01*
X1968Y3150D01*
X1969Y3150D01*
X1970Y3150D01*
X1971Y3150D01*
X1972Y3150D01*
X1973Y3150D01*
X1974Y3150D01*
X1975Y3150D01*
X1976Y3150D01*
X1977Y3150D01*
X1978Y3150D01*
X1979Y3150D01*
X1980Y3150D01*
X1981Y3150D01*
X1982Y3150D01*
X1983Y3150D01*
X1984Y3150D01*
X1985Y3150D01*
X1986Y3150D01*
X1987Y3150D01*
X1988Y3150D01*
X1989Y3150D01*
X1990Y3150D01*
X1991Y3150D01*
X1992Y3150D01*
X1993Y3150D01*
X1994Y3150D01*
X1995Y3150D01*
X1996Y3150D01*
X1997Y3150D01*
X1998Y3150D01*
X1999Y3150D01*
X2000Y3150D01*
X2001Y3150D01*
X2002Y3150D01*
X2003Y3150D01*
X2004Y3150D01*
X2005Y3150D01*
X2006Y3150D01*
X2007Y3150D01*
X2008Y3150D01*
X2009Y3150D01*
X2010Y3150D01*
X2011Y3150D01*
X2012Y3150D01*
X2013Y3150D01*
X2014Y3150D01*
X2015Y3150D01*
X2016Y3150D01*
X2017Y3150D01*
X2018Y3150D01*
X2019Y3150D01*
X2020Y3150D01*
X2021Y3150D01*
X2022Y3150D01*
X2023Y3150D01*
X2024Y3150D01*
X2025Y3150D01*
X2026Y3150D01*
X2027Y3150D01*
X2028Y3150D01*
X2029Y3150D01*
X2030Y3150D01*
X2031Y3150D01*
X2032Y3150D01*
X2033Y3150D01*
X2034Y3150D01*
X2035Y3150D01*
X2036Y3150D01*
X2037Y3150D01*
X2038Y3150D01*
X2039Y3150D01*
X2040Y3150D01*
X2041Y3150D01*
X2042Y3150D01*
X2043Y3150D01*
X2044Y3150D01*
X2045Y3150D01*
X2046Y3150D01*
X2047Y3150D01*
X2048Y3150D01*
X2049Y3150D01*
X2050Y3150D01*
X2051Y3150D01*
X2052Y3150D01*
X2053Y3150D01*
X2054Y3150D01*
X2055Y3150D01*
X2056Y3150D01*
X2057Y3150D01*
X2058Y3150D01*
X2059Y3150D01*
X2060Y3150D01*
X2061Y3150D01*
X2062Y3150D01*
X2063Y3150D01*
X2064Y3150D01*
X2065Y3150D01*
X2066Y3150D01*
X2067Y3150D01*
X2068Y3150D01*
X2069Y3150D01*
X2070Y3150D01*
X2071Y3150D01*
X2072Y3150D01*
X2073Y3150D01*
X2074Y3150D01*
X2075Y3150D01*
X2076Y3150D01*
X2077Y3150D01*
X2078Y3150D01*
X2079Y3150D01*
X2080Y3150D01*
X2081Y3150D01*
X2082Y3150D01*
X2083Y3150D01*
X2084Y3150D01*
X2085Y3150D01*
X2086Y3150D01*
X2087Y3150D01*
X2088Y3150D01*
X2089Y3150D01*
X2090Y3150D01*
X2091Y3150D01*
X2092Y3150D01*
X2093Y3150D01*
X2094Y3150D01*
X2095Y3150D01*
X2096Y3150D01*
X2097Y3150D01*
X2098Y3150D01*
X2099Y3150D01*
X2100Y3150D01*
X2101Y3150D01*
X2102Y3150D01*
X2103Y3150D01*
X2104Y3150D01*
X2105Y3150D01*
X2106Y3150D01*
X2107Y3150D01*
X2108Y3150D01*
X2109Y3150D01*
X2110Y3150D01*
X2111Y3150D01*
X2112Y3150D01*
X2113Y3150D01*
X2114Y3150D01*
X2115Y3150D01*
X2116Y3150D01*
X2117Y3150D01*
X2118Y3150D01*
X2119Y3150D01*
X2120Y3150D01*
X2121Y3150D01*
X2122Y3150D01*
X2123Y3150D01*
X2124Y3150D01*
X2125Y3150D01*
X2126Y3150D01*
X2127Y3150D01*
X2128Y3150D01*
X2129Y3150D01*
X2130Y3150D01*
X2131Y3150D01*
X2132Y3150D01*
X2133Y3150D01*
X2134Y3150D01*
X2135Y3150D01*
X2136Y3150D01*
X2137Y3150D01*
X2138Y3150D01*
X2139Y3150D01*
X2140Y3150D01*
X2141Y3150D01*
X2142Y3150D01*
X2143Y3150D01*
X2144Y3150D01*
X2145Y3150D01*
X2146Y3150D01*
X2147Y3150D01*
X2148Y3150D01*
X2149Y3150D01*
X2149Y479D01*
X2148Y478D01*
X2148Y462D01*
X2147Y461D01*
X2147Y451D01*
X2146Y450D01*
X2146Y442D01*
X2145Y441D01*
X2145Y434D01*
X2144Y433D01*
X2144Y427D01*
X2143Y426D01*
X2143Y420D01*
X2142Y419D01*
X2142Y414D01*
X2141Y413D01*
X2141Y409D01*
X2140Y408D01*
X2140Y404D01*
X2139Y403D01*
X2139Y399D01*
X2138Y398D01*
X2138Y394D01*
X2137Y393D01*
X2137Y390D01*
X2136Y389D01*
X2136Y385D01*
X2135Y384D01*
X2135Y381D01*
X2134Y380D01*
X2134Y377D01*
X2133Y376D01*
X2133Y373D01*
X2132Y372D01*
X2132Y370D01*
X2131Y369D01*
X2131Y366D01*
X2130Y365D01*
X2130Y362D01*
X2129Y361D01*
X2129Y359D01*
X2128Y358D01*
X2128Y356D01*
X2127Y355D01*
X2127Y352D01*
X2126Y351D01*
X2126Y349D01*
X2125Y348D01*
X2125Y346D01*
X2124Y345D01*
X2124Y343D01*
X2123Y342D01*
X2123Y340D01*
X2122Y339D01*
X2122Y337D01*
X2121Y336D01*
X2121Y334D01*
X2120Y333D01*
X2120Y331D01*
X2119Y330D01*
X2119Y329D01*
X2118Y328D01*
X2118Y326D01*
X2117Y325D01*
X2117Y323D01*
X2116Y322D01*
X2116Y321D01*
X2115Y320D01*
X2115Y318D01*
X2114Y317D01*
X2114Y316D01*
X2113Y315D01*
X2113Y313D01*
X2112Y312D01*
X2112Y311D01*
X2111Y310D01*
X2111Y308D01*
X2110Y307D01*
X2110Y306D01*
X2109Y305D01*
X2109Y304D01*
X2108Y303D01*
X2108Y301D01*
X2107Y300D01*
X2107Y299D01*
X2106Y298D01*
X2106Y297D01*
X2105Y296D01*
X2105Y295D01*
X2104Y294D01*
X2104Y292D01*
X2103Y291D01*
X2103Y290D01*
X2102Y289D01*
X2102Y288D01*
X2101Y287D01*
X2101Y286D01*
X2100Y285D01*
X2100Y284D01*
X2099Y283D01*
X2099Y282D01*
X2098Y281D01*
X2098Y280D01*
X2097Y279D01*
X2097Y278D01*
X2096Y277D01*
X2096Y276D01*
X2095Y275D01*
X2095Y274D01*
X2094Y273D01*
X2094Y272D01*
X2093Y271D01*
X2093Y270D01*
X2092Y269D01*
X2092Y268D01*
X2091Y267D01*
X2091Y266D01*
X2090Y265D01*
X2090Y264D01*
X2089Y263D01*
X2089Y262D01*
X2088Y261D01*
X2087Y260D01*
X2087Y259D01*
X2086Y258D01*
X2086Y257D01*
X2085Y256D01*
X2085Y255D01*
X2084Y254D01*
X2084Y253D01*
X2083Y252D01*
X2082Y251D01*
X2082Y250D01*
X2081Y249D01*
X2081Y248D01*
X2080Y247D01*
X2079Y246D01*
X2079Y245D01*
X2078Y244D01*
X2078Y243D01*
X2077Y242D01*
X2076Y241D01*
X2076Y240D01*
X2075Y239D01*
X2075Y238D01*
X2074Y237D01*
X2073Y236D01*
X2073Y235D01*
X2072Y234D01*
X2071Y233D01*
X2071Y232D01*
X2070Y231D01*
X2070Y230D01*
X2069Y229D01*
X2068Y228D01*
X2068Y227D01*
X2067Y226D01*
X2066Y225D01*
X2066Y224D01*
X2065Y223D01*
X2064Y222D01*
X2064Y221D01*
X2063Y220D01*
X2062Y219D01*
X2062Y218D01*
X2061Y217D01*
X2060Y216D01*
X2059Y215D01*
X2059Y214D01*
X2058Y213D01*
X2057Y212D01*
X2057Y211D01*
X2056Y210D01*
X2055Y209D01*
X2055Y208D01*
X2054Y207D01*
X2053Y206D01*
X2052Y205D01*
X2052Y204D01*
X2051Y203D01*
X2050Y202D01*
X2049Y201D01*
X2049Y200D01*
X2048Y199D01*
X2047Y198D01*
X2046Y197D01*
X2046Y196D01*
X2045Y195D01*
X2044Y194D01*
X2043Y193D01*
X2042Y192D01*
X2042Y191D01*
X2041Y190D01*
X2040Y189D01*
X2039Y188D01*
X2038Y187D01*
X2038Y186D01*
X2037Y185D01*
X2036Y184D01*
X2035Y183D01*
X2034Y182D01*
X2034Y181D01*
X2033Y180D01*
X2032Y179D01*
X2031Y178D01*
X2030Y177D01*
X2029Y176D01*
X2029Y175D01*
X2028Y174D01*
X2027Y173D01*
X2026Y172D01*
X2025Y171D01*
X2024Y170D01*
X2023Y169D01*
X2022Y168D01*
X2021Y167D01*
X2021Y166D01*
X2020Y165D01*
X2019Y164D01*
X2018Y163D01*
X2017Y162D01*
X2016Y161D01*
X2015Y160D01*
X2014Y159D01*
X2013Y158D01*
X2012Y157D01*
X2011Y156D01*
X2010Y155D01*
X2009Y154D01*
X2008Y153D01*
X2007Y152D01*
X2006Y151D01*
X2006Y150D01*
X2005Y149D01*
X2004Y148D01*
X2003Y147D01*
X2002Y146D01*
X2001Y145D01*
X2000Y144D01*
X1999Y144D01*
X1998Y143D01*
X1997Y142D01*
X1996Y141D01*
X1995Y140D01*
X1994Y139D01*
X1993Y138D01*
X1992Y137D01*
X1991Y136D01*
X1990Y135D01*
X1989Y134D01*
X1988Y133D01*
X1987Y132D01*
X1986Y131D01*
X1985Y130D01*
X1984Y129D01*
X1983Y129D01*
X1982Y128D01*
X1981Y127D01*
X1980Y126D01*
X1979Y125D01*
X1978Y124D01*
X1977Y123D01*
X1976Y122D01*
X1975Y122D01*
X1974Y121D01*
X1973Y120D01*
X1972Y119D01*
X1971Y118D01*
X1970Y117D01*
X1969Y116D01*
X1968Y116D01*
X1967Y115D01*
X1966Y114D01*
X1965Y113D01*
X1964Y112D01*
X1963Y112D01*
X1962Y111D01*
X1961Y110D01*
X1960Y109D01*
X1959Y108D01*
X1958Y108D01*
X1957Y107D01*
X1956Y106D01*
X1955Y105D01*
X1954Y104D01*
X1953Y104D01*
X1952Y103D01*
X1951Y102D01*
X1950Y101D01*
X1949Y101D01*
X1948Y100D01*
X1947Y99D01*
X1946Y98D01*
X1945Y98D01*
X1944Y97D01*
X1943Y96D01*
X1942Y95D01*
X1941Y95D01*
X1940Y94D01*
X1939Y93D01*
X1938Y93D01*
X1937Y92D01*
X1936Y91D01*
X1935Y91D01*
X1934Y90D01*
X1933Y89D01*
X1932Y88D01*
X1931Y88D01*
X1930Y87D01*
X1929Y86D01*
X1928Y86D01*
X1927Y85D01*
X1926Y84D01*
X1925Y84D01*
X1924Y83D01*
X1923Y82D01*
X1922Y82D01*
X1921Y81D01*
X1920Y80D01*
X1919Y80D01*
X1918Y79D01*
X1917Y79D01*
X1916Y78D01*
X1915Y77D01*
X1914Y77D01*
X1913Y76D01*
X1912Y75D01*
X1911Y75D01*
X1910Y74D01*
X1909Y74D01*
X1908Y73D01*
X1907Y72D01*
X1906Y72D01*
X1905Y71D01*
X1904Y71D01*
X1903Y70D01*
X1902Y69D01*
X1901Y69D01*
X1900Y68D01*
X1899Y68D01*
X1898Y67D01*
X1897Y66D01*
X1896Y66D01*
X1895Y65D01*
X1894Y65D01*
X1893Y64D01*
X1892Y64D01*
X1891Y63D01*
X1890Y63D01*
X1889Y62D01*
X1888Y61D01*
X1887Y61D01*
X1886Y60D01*
X1885Y60D01*
X1884Y59D01*
X1883Y59D01*
X1882Y58D01*
X1881Y58D01*
X1880Y57D01*
X1879Y57D01*
X1878Y56D01*
X1877Y56D01*
X1876Y55D01*
X1875Y55D01*
X1874Y54D01*
X1873Y54D01*
X1872Y53D01*
X1871Y53D01*
X1870Y52D01*
X1869Y52D01*
X1868Y51D01*
X1867Y51D01*
X1866Y50D01*
X1865Y50D01*
X1864Y49D01*
X1863Y49D01*
X1862Y48D01*
X1861Y48D01*
X1860Y47D01*
X1859Y47D01*
X1858Y46D01*
X1857Y46D01*
X1856Y46D01*
X1855Y45D01*
X1854Y45D01*
X1853Y44D01*
X1852Y44D01*
X1851Y43D01*
X1850Y43D01*
X1849Y42D01*
X1848Y42D01*
X1847Y42D01*
X1846Y41D01*
X1845Y41D01*
X1844Y40D01*
X1843Y40D01*
X1842Y39D01*
X1841Y39D01*
X1840Y39D01*
X1839Y38D01*
X1838Y38D01*
X1837Y37D01*
X1836Y37D01*
X1835Y37D01*
X1834Y36D01*
X1833Y36D01*
X1832Y35D01*
X1831Y35D01*
X1830Y35D01*
X1829Y34D01*
X1828Y34D01*
X1827Y33D01*
X1826Y33D01*
X1825Y33D01*
X1824Y32D01*
X1823Y32D01*
X1822Y32D01*
X1821Y31D01*
X1820Y31D01*
X1819Y30D01*
X1818Y30D01*
X1817Y30D01*
X1816Y29D01*
X1815Y29D01*
X1814Y29D01*
X1813Y28D01*
X1812Y28D01*
X1811Y28D01*
X1810Y27D01*
X1809Y27D01*
X1808Y27D01*
X1807Y26D01*
X1806Y26D01*
X1805Y26D01*
X1804Y25D01*
X1803Y25D01*
X1802Y25D01*
X1801Y24D01*
X1800Y24D01*
X1799Y24D01*
X1798Y23D01*
X1797Y23D01*
X1796Y23D01*
X1795Y23D01*
X1794Y22D01*
X1793Y22D01*
X1792Y22D01*
X1791Y21D01*
X1790Y21D01*
X1789Y21D01*
X1788Y20D01*
X1787Y20D01*
X1786Y20D01*
X1785Y20D01*
X1784Y19D01*
X1783Y19D01*
X1782Y19D01*
X1781Y19D01*
X1780Y18D01*
X1779Y18D01*
X1778Y18D01*
X1777Y17D01*
X1776Y17D01*
X1775Y17D01*
X1774Y17D01*
X1773Y16D01*
X1772Y16D01*
X1771Y16D01*
X1770Y16D01*
X1769Y15D01*
X1768Y15D01*
X1767Y15D01*
X1766Y15D01*
X1765Y14D01*
X1764Y14D01*
X1763Y14D01*
X1762Y14D01*
X1761Y14D01*
X1760Y13D01*
X1759Y13D01*
X1758Y13D01*
X1757Y13D01*
X1756Y12D01*
X1755Y12D01*
X1754Y12D01*
X1753Y12D01*
X1752Y12D01*
X1751Y11D01*
X1750Y11D01*
X1749Y11D01*
X1748Y11D01*
X1747Y11D01*
X1746Y10D01*
X1745Y10D01*
X1744Y10D01*
X1743Y10D01*
X1742Y10D01*
X1741Y9D01*
X1740Y9D01*
X1739Y9D01*
X1738Y9D01*
X1737Y9D01*
X1736Y8D01*
X1735Y8D01*
X1734Y8D01*
X1733Y8D01*
X1732Y8D01*
X1731Y8D01*
X1730Y7D01*
X1729Y7D01*
X1728Y7D01*
X1727Y7D01*
X1726Y7D01*
X1725Y7D01*
X1724Y7D01*
X1723Y6D01*
X1722Y6D01*
X1721Y6D01*
X1720Y6D01*
X1719Y6D01*
X1718Y6D01*
X1717Y6D01*
X1716Y5D01*
X1715Y5D01*
X1714Y5D01*
X1713Y5D01*
X1712Y5D01*
X1711Y5D01*
X1710Y5D01*
X1709Y5D01*
X1708Y4D01*
X1707Y4D01*
X1706Y4D01*
X1705Y4D01*
X1704Y4D01*
X1703Y4D01*
X1702Y4D01*
X1701Y4D01*
X1700Y4D01*
X1699Y3D01*
X1698Y3D01*
X1697Y3D01*
X1696Y3D01*
X1695Y3D01*
X1694Y3D01*
X1693Y3D01*
X1692Y3D01*
X1691Y3D01*
X1690Y3D01*
X1689Y3D01*
X1688Y2D01*
X1687Y2D01*
X1686Y2D01*
X1685Y2D01*
X1684Y2D01*
X1683Y2D01*
X1682Y2D01*
X1681Y2D01*
X1680Y2D01*
X1679Y2D01*
X1678Y2D01*
X1677Y2D01*
X1676Y2D01*
X1675Y2D01*
X1674Y2D01*
X1673Y2D01*
X1672Y2D01*
X1671Y1D01*
X1670Y1D01*
X1669Y1D01*
X1668Y1D01*
X1667Y1D01*
X1666Y1D01*
X1665Y1D01*
X1664Y1D01*
X1663Y1D01*
X1662Y1D01*
X1661Y1D01*
X1660Y1D01*
X1659Y1D01*
X1658Y1D01*
X1657Y1D01*
X1656Y1D01*
X1655Y1D01*
X1654Y1D01*
X1653Y1D01*
X1652Y1D01*
X1651Y1D01*
X1650Y1D01*
X1649Y1D01*
X1648Y1D01*
X1647Y1D01*
X1646Y1D01*
X1645Y1D01*
X1644Y1D01*
X1643Y1D01*
X1642Y1D01*
X1641Y1D01*
X1640Y1D01*
X1639Y1D01*
X1638Y1D01*
X1637Y1D01*
X1636Y1D01*
X1635Y1D01*
X1634Y1D01*
X1633Y1D01*
X1632Y1D01*
X1631Y1D01*
X1630Y1D01*
X1629Y1D01*
X1628Y1D01*
X1627Y1D01*
X1626Y1D01*
X1625Y1D01*
X1624Y1D01*
X1623Y1D01*
X1622Y1D01*
X1621Y1D01*
X1620Y1D01*
X1619Y1D01*
X1618Y1D01*
X1617Y1D01*
X1616Y1D01*
X1615Y1D01*
X1614Y1D01*
X1613Y1D01*
X1612Y1D01*
X1611Y1D01*
X1610Y1D01*
X1609Y1D01*
X1608Y1D01*
X1607Y1D01*
X1606Y1D01*
X1605Y1D01*
X1604Y1D01*
X1603Y1D01*
X1602Y1D01*
X1601Y1D01*
X1600Y1D01*
X1599Y1D01*
X1598Y1D01*
X1597Y1D01*
X1596Y1D01*
X1595Y1D01*
X1594Y1D01*
X1593Y1D01*
X1592Y1D01*
X1591Y1D01*
X1590Y1D01*
X1589Y1D01*
X1588Y1D01*
X1587Y1D01*
X1586Y1D01*
X1585Y1D01*
X1584Y1D01*
X1583Y1D01*
X1582Y1D01*
X1581Y1D01*
X1580Y1D01*
X1579Y1D01*
X1578Y1D01*
X1577Y1D01*
X1576Y1D01*
X1575Y1D01*
X1574Y1D01*
X1573Y1D01*
X1572Y1D01*
X1571Y1D01*
X1570Y1D01*
X1569Y1D01*
X1568Y1D01*
X1567Y1D01*
X1566Y1D01*
X1565Y1D01*
X1564Y1D01*
X1563Y1D01*
X1562Y1D01*
X1561Y1D01*
X1560Y1D01*
X1559Y1D01*
X1558Y1D01*
X1557Y1D01*
X1556Y1D01*
X1555Y1D01*
X1554Y1D01*
X1553Y1D01*
X1552Y1D01*
X1551Y1D01*
X1550Y1D01*
X1549Y1D01*
X1548Y1D01*
X1547Y1D01*
X1546Y1D01*
X1545Y1D01*
X1544Y1D01*
X1543Y1D01*
X1542Y1D01*
X1541Y1D01*
X1540Y1D01*
X1539Y1D01*
X1538Y1D01*
X1537Y1D01*
X1536Y1D01*
X1535Y1D01*
X1534Y1D01*
X1533Y1D01*
X1532Y1D01*
X1531Y1D01*
X1530Y1D01*
X1529Y1D01*
X1528Y1D01*
X1527Y1D01*
X1526Y1D01*
X1525Y1D01*
X1524Y1D01*
X1523Y1D01*
X1522Y1D01*
X1521Y1D01*
X1520Y1D01*
X1519Y1D01*
X1518Y1D01*
X1517Y1D01*
X1516Y1D01*
X1515Y1D01*
X1514Y1D01*
X1513Y1D01*
X1512Y1D01*
X1511Y1D01*
X1510Y1D01*
X1509Y1D01*
X1508Y1D01*
X1507Y1D01*
X1506Y1D01*
X1505Y1D01*
X1504Y1D01*
X1503Y1D01*
X1502Y1D01*
X1501Y1D01*
X1500Y1D01*
X1499Y1D01*
X1498Y1D01*
X1497Y1D01*
X1496Y1D01*
X1495Y1D01*
X1494Y1D01*
X1493Y1D01*
X1492Y1D01*
X1491Y1D01*
X1490Y1D01*
X1489Y1D01*
X1488Y1D01*
X1487Y1D01*
X1486Y1D01*
X1485Y1D01*
X1484Y1D01*
X1483Y1D01*
X1482Y1D01*
X1481Y1D01*
X1480Y1D01*
X1479Y1D01*
X1478Y1D01*
X1477Y1D01*
X1476Y1D01*
X1475Y1D01*
X1474Y1D01*
X1473Y1D01*
X1472Y1D01*
X1471Y1D01*
X1470Y1D01*
X1469Y1D01*
X1468Y1D01*
X1467Y1D01*
X1466Y1D01*
X1465Y1D01*
X1464Y1D01*
X1463Y1D01*
X1462Y1D01*
X1461Y1D01*
X1460Y1D01*
X1459Y1D01*
X1458Y1D01*
X1457Y1D01*
X1456Y1D01*
X1455Y1D01*
X1454Y1D01*
X1453Y1D01*
X1452Y1D01*
X1451Y1D01*
X1450Y1D01*
X1449Y1D01*
X1448Y1D01*
X1447Y1D01*
X1446Y1D01*
X1445Y1D01*
X1444Y1D01*
X1443Y1D01*
X1442Y1D01*
X1441Y1D01*
X1440Y1D01*
X1439Y1D01*
X1438Y1D01*
X1437Y1D01*
X1436Y1D01*
X1435Y1D01*
X1434Y1D01*
X1433Y1D01*
X1432Y1D01*
X1431Y1D01*
X1430Y1D01*
X1429Y1D01*
X1428Y1D01*
X1427Y1D01*
X1426Y1D01*
X1425Y1D01*
X1424Y1D01*
X1423Y1D01*
X1422Y1D01*
X1421Y1D01*
X1420Y1D01*
X1419Y1D01*
X1418Y1D01*
X1417Y1D01*
X1416Y1D01*
X1415Y1D01*
X1414Y1D01*
X1413Y1D01*
X1412Y1D01*
X1411Y1D01*
X1410Y1D01*
X1409Y1D01*
X1408Y1D01*
X1407Y1D01*
X1406Y1D01*
X1405Y1D01*
X1404Y1D01*
X1403Y1D01*
X1402Y1D01*
X1401Y1D01*
X1400Y1D01*
X1399Y1D01*
X1398Y1D01*
X1397Y1D01*
X1396Y1D01*
X1395Y1D01*
X1394Y1D01*
X1393Y1D01*
X1392Y1D01*
X1391Y1D01*
X1390Y1D01*
X1389Y1D01*
X1388Y1D01*
X1387Y1D01*
X1386Y1D01*
X1385Y1D01*
X1384Y1D01*
X1383Y1D01*
X1382Y1D01*
X1381Y1D01*
X1380Y1D01*
X1379Y1D01*
X1378Y1D01*
X1377Y1D01*
X1376Y1D01*
X1375Y1D01*
X1374Y1D01*
X1373Y1D01*
X1372Y1D01*
X1371Y1D01*
X1370Y1D01*
X1369Y1D01*
X1368Y1D01*
X1367Y1D01*
X1366Y1D01*
X1365Y1D01*
X1364Y1D01*
X1363Y1D01*
X1362Y1D01*
X1361Y1D01*
X1360Y1D01*
X1359Y1D01*
X1358Y1D01*
X1357Y1D01*
X1356Y1D01*
X1355Y1D01*
X1354Y1D01*
X1353Y1D01*
X1352Y1D01*
X1351Y1D01*
X1350Y1D01*
X1349Y1D01*
X1348Y1D01*
X1347Y1D01*
X1346Y1D01*
X1345Y1D01*
X1344Y1D01*
X1343Y1D01*
X1342Y1D01*
X1341Y1D01*
X1340Y1D01*
X1339Y1D01*
X1338Y1D01*
X1337Y1D01*
X1336Y1D01*
X1335Y1D01*
X1334Y1D01*
X1333Y1D01*
X1332Y1D01*
X1331Y1D01*
X1330Y1D01*
X1329Y1D01*
X1328Y1D01*
X1327Y1D01*
X1326Y1D01*
X1325Y1D01*
X1324Y1D01*
X1323Y1D01*
X1322Y1D01*
X1321Y1D01*
X1320Y1D01*
X1319Y1D01*
X1318Y1D01*
X1317Y1D01*
X1316Y1D01*
X1315Y1D01*
X1314Y1D01*
X1313Y1D01*
X1312Y1D01*
X1311Y1D01*
X1310Y1D01*
X1309Y1D01*
X1308Y1D01*
X1307Y1D01*
X1306Y1D01*
X1305Y1D01*
X1304Y1D01*
X1303Y1D01*
X1302Y1D01*
X1301Y1D01*
X1300Y1D01*
X1299Y1D01*
X1298Y1D01*
X1297Y1D01*
X1296Y1D01*
X1295Y1D01*
X1294Y1D01*
X1293Y1D01*
X1292Y1D01*
X1291Y1D01*
X1290Y1D01*
X1289Y1D01*
X1288Y1D01*
X1287Y1D01*
X1286Y1D01*
X1285Y1D01*
X1284Y1D01*
X1283Y1D01*
X1282Y1D01*
X1281Y1D01*
X1280Y1D01*
X1279Y1D01*
X1278Y1D01*
X1277Y1D01*
X1276Y1D01*
X1275Y1D01*
X1274Y1D01*
X1273Y1D01*
X1272Y1D01*
X1271Y1D01*
X1270Y1D01*
X1269Y1D01*
X1268Y1D01*
X1267Y1D01*
X1266Y1D01*
X1265Y1D01*
X1264Y1D01*
X1263Y1D01*
X1262Y1D01*
X1261Y1D01*
X1260Y1D01*
X1259Y1D01*
X1258Y1D01*
X1257Y1D01*
X1256Y1D01*
X1255Y1D01*
X1254Y1D01*
X1253Y1D01*
X1252Y1D01*
X1251Y1D01*
X1250Y1D01*
X1249Y1D01*
X1248Y1D01*
X1247Y1D01*
X1246Y1D01*
X1245Y1D01*
X1244Y1D01*
X1243Y1D01*
X1242Y1D01*
X1241Y1D01*
X1240Y1D01*
X1239Y1D01*
X1238Y1D01*
X1237Y1D01*
X1236Y1D01*
X1235Y1D01*
X1234Y1D01*
X1233Y1D01*
X1232Y1D01*
X1231Y1D01*
X1230Y1D01*
X1229Y1D01*
X1228Y1D01*
X1227Y1D01*
X1226Y1D01*
X1225Y1D01*
X1224Y1D01*
X1223Y1D01*
X1222Y1D01*
X1221Y1D01*
X1220Y1D01*
X1219Y1D01*
X1218Y1D01*
X1217Y1D01*
X1216Y1D01*
X1215Y1D01*
X1214Y1D01*
X1213Y1D01*
X1212Y1D01*
X1211Y1D01*
X1210Y1D01*
X1209Y1D01*
X1208Y1D01*
X1207Y1D01*
X1206Y1D01*
X1205Y1D01*
X1204Y1D01*
X1203Y1D01*
X1202Y1D01*
X1201Y1D01*
X1200Y1D01*
X1199Y1D01*
X1198Y1D01*
X1197Y1D01*
X1196Y1D01*
X1195Y1D01*
X1194Y1D01*
X1193Y1D01*
X1192Y1D01*
X1191Y1D01*
X1190Y1D01*
X1189Y1D01*
X1188Y1D01*
X1187Y1D01*
X1186Y1D01*
X1185Y1D01*
X1184Y1D01*
X1183Y1D01*
X1182Y1D01*
X1181Y1D01*
X1180Y1D01*
X1179Y1D01*
X1178Y1D01*
X1177Y1D01*
X1176Y1D01*
X1175Y1D01*
X1174Y1D01*
X1173Y1D01*
X1172Y1D01*
X1171Y1D01*
X1170Y1D01*
X1169Y1D01*
X1168Y1D01*
X1167Y1D01*
X1166Y1D01*
X1165Y1D01*
X1164Y1D01*
X1163Y1D01*
X1162Y1D01*
X1161Y1D01*
X1160Y1D01*
X1159Y1D01*
X1158Y1D01*
X1157Y1D01*
X1156Y1D01*
X1155Y1D01*
X1154Y1D01*
X1153Y1D01*
X1152Y1D01*
X1151Y1D01*
X1150Y1D01*
X1149Y1D01*
X1148Y1D01*
X1147Y1D01*
X1146Y1D01*
X1145Y1D01*
X1144Y1D01*
X1143Y1D01*
X1142Y1D01*
X1141Y1D01*
X1140Y1D01*
X1139Y1D01*
X1138Y1D01*
X1137Y1D01*
X1136Y1D01*
X1135Y1D01*
X1134Y1D01*
X1133Y1D01*
X1132Y1D01*
X1131Y1D01*
X1130Y1D01*
X1129Y1D01*
X1128Y1D01*
X1127Y1D01*
X1126Y1D01*
X1125Y1D01*
X1124Y1D01*
X1123Y1D01*
X1122Y1D01*
X1121Y1D01*
X1120Y1D01*
X1119Y1D01*
X1118Y1D01*
X1117Y1D01*
X1116Y1D01*
X1115Y1D01*
X1114Y1D01*
X1113Y1D01*
X1112Y1D01*
X1111Y1D01*
X1110Y1D01*
X1109Y1D01*
X1108Y1D01*
X1107Y1D01*
X1106Y1D01*
X1105Y1D01*
X1104Y1D01*
X1103Y1D01*
X1102Y1D01*
X1101Y1D01*
X1100Y1D01*
X1099Y1D01*
X1098Y1D01*
X1097Y1D01*
X1096Y1D01*
X1095Y1D01*
X1094Y1D01*
X1093Y1D01*
X1092Y1D01*
X1091Y1D01*
X1090Y1D01*
X1089Y1D01*
X1088Y1D01*
X1087Y1D01*
X1086Y1D01*
X1085Y1D01*
X1084Y1D01*
X1083Y1D01*
X1082Y1D01*
X1081Y1D01*
X1080Y1D01*
X1079Y1D01*
X1078Y1D01*
X1077Y1D01*
X1076Y1D01*
X1075Y1D01*
X1074Y1D01*
X1073Y1D01*
X1072Y1D01*
X1071Y1D01*
X1070Y1D01*
X1069Y1D01*
X1068Y1D01*
X1067Y1D01*
X1066Y1D01*
X1065Y1D01*
X1064Y1D01*
X1063Y1D01*
X1062Y1D01*
X1061Y1D01*
X1060Y1D01*
X1059Y1D01*
X1058Y1D01*
X1057Y1D01*
X1056Y1D01*
X1055Y1D01*
X1054Y1D01*
X1053Y1D01*
X1052Y1D01*
X1051Y1D01*
X1050Y1D01*
X1049Y1D01*
X1048Y1D01*
X1047Y1D01*
X1046Y1D01*
X1045Y1D01*
X1044Y1D01*
X1043Y1D01*
X1042Y1D01*
X1041Y1D01*
X1040Y1D01*
X1039Y1D01*
X1038Y1D01*
X1037Y1D01*
X1036Y1D01*
X1035Y1D01*
X1034Y1D01*
X1033Y1D01*
X1032Y1D01*
X1031Y1D01*
X1030Y1D01*
X1029Y1D01*
X1028Y1D01*
X1027Y1D01*
X1026Y1D01*
X1025Y1D01*
X1024Y1D01*
X1023Y1D01*
X1022Y1D01*
X1021Y1D01*
X1020Y1D01*
X1019Y1D01*
X1018Y1D01*
X1017Y1D01*
X1016Y1D01*
X1015Y1D01*
X1014Y1D01*
X1013Y1D01*
X1012Y1D01*
X1011Y1D01*
X1010Y1D01*
X1009Y1D01*
X1008Y1D01*
X1007Y1D01*
X1006Y1D01*
X1005Y1D01*
X1004Y1D01*
X1003Y1D01*
X1002Y1D01*
X1001Y1D01*
X1000Y1D01*
X999Y1D01*
X998Y1D01*
X997Y1D01*
X996Y1D01*
X995Y1D01*
X994Y1D01*
X993Y1D01*
X992Y1D01*
X991Y1D01*
X990Y1D01*
X989Y1D01*
X988Y1D01*
X987Y1D01*
X986Y1D01*
X985Y1D01*
X984Y1D01*
X983Y1D01*
X982Y1D01*
X981Y1D01*
X980Y1D01*
X979Y1D01*
X978Y1D01*
X977Y1D01*
X976Y1D01*
X975Y1D01*
X974Y1D01*
X973Y1D01*
X972Y1D01*
X971Y1D01*
X970Y1D01*
X969Y1D01*
X968Y1D01*
X967Y1D01*
X966Y1D01*
X965Y1D01*
X964Y1D01*
X963Y1D01*
X962Y1D01*
X961Y1D01*
X960Y1D01*
X959Y1D01*
X958Y1D01*
X957Y1D01*
X956Y1D01*
X955Y1D01*
X954Y1D01*
X953Y1D01*
X952Y1D01*
X951Y1D01*
X950Y1D01*
X949Y1D01*
X948Y1D01*
X947Y1D01*
X946Y1D01*
X945Y1D01*
X944Y1D01*
X943Y1D01*
X942Y1D01*
X941Y1D01*
X940Y1D01*
X939Y1D01*
X938Y1D01*
X937Y1D01*
X936Y1D01*
X935Y1D01*
X934Y1D01*
X933Y1D01*
X932Y1D01*
X931Y1D01*
X930Y1D01*
X929Y1D01*
X928Y1D01*
X927Y1D01*
X926Y1D01*
X925Y1D01*
X924Y1D01*
X923Y1D01*
X922Y1D01*
X921Y1D01*
X920Y1D01*
X919Y1D01*
X918Y1D01*
X917Y1D01*
X916Y1D01*
X915Y1D01*
X914Y1D01*
X913Y1D01*
X912Y1D01*
X911Y1D01*
X910Y1D01*
X909Y1D01*
X908Y1D01*
X907Y1D01*
X906Y1D01*
X905Y1D01*
X904Y1D01*
X903Y1D01*
X902Y1D01*
X901Y1D01*
X900Y1D01*
X899Y1D01*
X898Y1D01*
X897Y1D01*
X896Y1D01*
X895Y1D01*
X894Y1D01*
X893Y1D01*
X892Y1D01*
X891Y1D01*
X890Y1D01*
X889Y1D01*
X888Y1D01*
X887Y1D01*
X886Y1D01*
X885Y1D01*
X884Y1D01*
X883Y1D01*
X882Y1D01*
X881Y1D01*
X880Y1D01*
X879Y1D01*
X878Y1D01*
X877Y1D01*
X876Y1D01*
X875Y1D01*
X874Y1D01*
X873Y1D01*
X872Y1D01*
X871Y1D01*
X870Y1D01*
X869Y1D01*
X868Y1D01*
X867Y1D01*
X866Y1D01*
X865Y1D01*
X864Y1D01*
X863Y1D01*
X862Y1D01*
X861Y1D01*
X860Y1D01*
X859Y1D01*
X858Y1D01*
X857Y1D01*
X856Y1D01*
X855Y1D01*
X854Y1D01*
X853Y1D01*
X852Y1D01*
X851Y1D01*
X850Y1D01*
X849Y1D01*
X848Y1D01*
X847Y1D01*
X846Y1D01*
X845Y1D01*
X844Y1D01*
X843Y1D01*
X842Y1D01*
X841Y1D01*
X840Y1D01*
X839Y1D01*
X838Y1D01*
X837Y1D01*
X836Y1D01*
X835Y1D01*
X834Y1D01*
X833Y1D01*
X832Y1D01*
X831Y1D01*
X830Y1D01*
X829Y1D01*
X828Y1D01*
X827Y1D01*
X826Y1D01*
X825Y1D01*
X824Y1D01*
X823Y1D01*
X822Y1D01*
X821Y1D01*
X820Y1D01*
X819Y1D01*
X818Y1D01*
X817Y1D01*
X816Y1D01*
X815Y1D01*
X814Y1D01*
X813Y1D01*
X812Y1D01*
X811Y1D01*
X810Y1D01*
X809Y1D01*
X808Y1D01*
X807Y1D01*
X806Y1D01*
X805Y1D01*
X804Y1D01*
X803Y1D01*
X802Y1D01*
X801Y1D01*
X800Y1D01*
X799Y1D01*
X798Y1D01*
X797Y1D01*
X796Y1D01*
X795Y1D01*
X794Y1D01*
X793Y1D01*
X792Y1D01*
X791Y1D01*
X790Y1D01*
X789Y1D01*
X788Y1D01*
X787Y1D01*
X786Y1D01*
X785Y1D01*
X784Y1D01*
X783Y1D01*
X782Y1D01*
X781Y1D01*
X780Y1D01*
X779Y1D01*
X778Y1D01*
X777Y1D01*
X776Y1D01*
X775Y1D01*
X774Y1D01*
X773Y1D01*
X772Y1D01*
X771Y1D01*
X770Y1D01*
X769Y1D01*
X768Y1D01*
X767Y1D01*
X766Y1D01*
X765Y1D01*
X764Y1D01*
X763Y1D01*
X762Y1D01*
X761Y1D01*
X760Y1D01*
X759Y1D01*
X758Y1D01*
X757Y1D01*
X756Y1D01*
X755Y1D01*
X754Y1D01*
X753Y1D01*
X752Y1D01*
X751Y1D01*
X750Y1D01*
X749Y1D01*
X748Y1D01*
X747Y1D01*
X746Y1D01*
X745Y1D01*
X744Y1D01*
X743Y1D01*
X742Y1D01*
X741Y1D01*
X740Y1D01*
X739Y1D01*
X738Y1D01*
X737Y1D01*
X736Y1D01*
X735Y1D01*
X734Y1D01*
X733Y1D01*
X732Y1D01*
X731Y1D01*
X730Y1D01*
X729Y1D01*
X728Y1D01*
X727Y1D01*
X726Y1D01*
X725Y1D01*
X724Y1D01*
X723Y1D01*
X722Y1D01*
X721Y1D01*
X720Y1D01*
X719Y1D01*
X718Y1D01*
X717Y1D01*
X716Y1D01*
X715Y1D01*
X714Y1D01*
X713Y1D01*
X712Y1D01*
X711Y1D01*
X710Y1D01*
X709Y1D01*
X708Y1D01*
X707Y1D01*
X706Y1D01*
X705Y1D01*
X704Y1D01*
X703Y1D01*
X702Y1D01*
X701Y1D01*
X700Y1D01*
X699Y1D01*
X698Y1D01*
X697Y1D01*
X696Y1D01*
X695Y1D01*
X694Y1D01*
X693Y1D01*
X692Y1D01*
X691Y1D01*
X690Y1D01*
X689Y1D01*
X688Y1D01*
X687Y1D01*
X686Y1D01*
X685Y1D01*
X684Y1D01*
X683Y1D01*
X682Y1D01*
X681Y1D01*
X680Y1D01*
X679Y1D01*
X678Y1D01*
X677Y1D01*
X676Y1D01*
X675Y1D01*
X674Y1D01*
X673Y1D01*
X672Y1D01*
X671Y1D01*
X670Y1D01*
X669Y1D01*
X668Y1D01*
X667Y1D01*
X666Y1D01*
X665Y1D01*
X664Y1D01*
X663Y1D01*
X662Y1D01*
X661Y1D01*
X660Y1D01*
X659Y1D01*
X658Y1D01*
X657Y1D01*
X656Y1D01*
X655Y1D01*
X654Y1D01*
X653Y1D01*
X652Y1D01*
X651Y1D01*
X650Y1D01*
X649Y1D01*
X648Y1D01*
X647Y1D01*
X646Y1D01*
X645Y1D01*
X644Y1D01*
X643Y1D01*
X642Y1D01*
X641Y1D01*
X640Y1D01*
X639Y1D01*
X638Y1D01*
X637Y1D01*
X636Y1D01*
X635Y1D01*
X634Y1D01*
X633Y1D01*
X632Y1D01*
X631Y1D01*
X630Y1D01*
X629Y1D01*
X628Y1D01*
X627Y1D01*
X626Y1D01*
X625Y1D01*
X624Y1D01*
X623Y1D01*
X622Y1D01*
X621Y1D01*
X620Y1D01*
X619Y1D01*
X618Y1D01*
X617Y1D01*
X616Y1D01*
X615Y1D01*
X614Y1D01*
X613Y1D01*
X612Y1D01*
X611Y1D01*
X610Y1D01*
X609Y1D01*
X608Y1D01*
X607Y1D01*
X606Y1D01*
X605Y1D01*
X604Y1D01*
X603Y1D01*
X602Y1D01*
X601Y1D01*
X600Y1D01*
X599Y1D01*
X598Y1D01*
X597Y1D01*
X596Y1D01*
X595Y1D01*
X594Y1D01*
X593Y1D01*
X592Y1D01*
X591Y1D01*
X590Y1D01*
X589Y1D01*
X588Y1D01*
X587Y1D01*
X586Y1D01*
X585Y1D01*
X584Y1D01*
X583Y1D01*
X582Y1D01*
X581Y1D01*
X580Y1D01*
X579Y1D01*
X578Y1D01*
X577Y1D01*
X576Y1D01*
X575Y1D01*
X574Y1D01*
X573Y1D01*
X572Y1D01*
X571Y1D01*
X570Y1D01*
X569Y1D01*
X568Y1D01*
X567Y1D01*
X566Y1D01*
X565Y1D01*
X564Y1D01*
X563Y1D01*
X562Y1D01*
X561Y1D01*
X560Y1D01*
X559Y1D01*
X558Y1D01*
X557Y1D01*
X556Y1D01*
X555Y1D01*
X554Y1D01*
X553Y1D01*
X552Y1D01*
X551Y1D01*
X550Y1D01*
X549Y1D01*
X548Y1D01*
X547Y1D01*
X546Y1D01*
X545Y1D01*
X544Y1D01*
X543Y1D01*
X542Y1D01*
X541Y1D01*
X540Y1D01*
X539Y1D01*
X538Y1D01*
X537Y1D01*
X536Y1D01*
X535Y1D01*
X534Y1D01*
X533Y1D01*
X532Y1D01*
X531Y1D01*
X530Y1D01*
X529Y1D01*
X528Y1D01*
X527Y1D01*
X526Y1D01*
X525Y1D01*
X524Y1D01*
X523Y1D01*
X522Y1D01*
X521Y1D01*
X520Y1D01*
X519Y1D01*
X518Y1D01*
X517Y1D01*
X516Y1D01*
X515Y1D01*
X514Y1D01*
X513Y1D01*
X512Y1D01*
X511Y1D01*
X510Y1D01*
X509Y1D01*
X508Y1D01*
X507Y1D01*
X506Y1D01*
X505Y1D01*
X504Y1D01*
X503Y1D01*
X502Y1D01*
X501Y1D01*
X500Y1D01*
X499Y1D01*
X498Y1D01*
X497Y1D01*
X496Y1D01*
X495Y1D01*
X494Y1D01*
X493Y1D01*
X492Y1D01*
X491Y1D01*
X490Y1D01*
X489Y1D01*
X488Y1D01*
X487Y1D01*
X486Y1D01*
X485Y1D01*
X484Y1D01*
X483Y1D01*
X482Y1D01*
X481Y1D01*
X480Y1D01*
X479Y1D01*
X478Y1D01*
X477Y2D01*
X476Y2D01*
X475Y2D01*
X474Y2D01*
X473Y2D01*
X472Y2D01*
X471Y2D01*
X470Y2D01*
X469Y2D01*
X468Y2D01*
X467Y2D01*
X466Y2D01*
X465Y2D01*
X464Y2D01*
X463Y2D01*
X462Y2D01*
X461Y2D01*
X460Y3D01*
X459Y3D01*
X458Y3D01*
X457Y3D01*
X456Y3D01*
X455Y3D01*
X454Y3D01*
X453Y3D01*
X452Y3D01*
X451Y3D01*
X450Y3D01*
X449Y4D01*
X448Y4D01*
X447Y4D01*
X446Y4D01*
X445Y4D01*
X444Y4D01*
X443Y4D01*
X442Y4D01*
X441Y4D01*
X440Y5D01*
X439Y5D01*
X438Y5D01*
X437Y5D01*
X436Y5D01*
X435Y5D01*
X434Y5D01*
X433Y5D01*
X432Y6D01*
X431Y6D01*
X430Y6D01*
X429Y6D01*
X428Y6D01*
X427Y6D01*
X426Y6D01*
X425Y7D01*
X424Y7D01*
X423Y7D01*
X422Y7D01*
X421Y7D01*
X420Y7D01*
X419Y7D01*
X418Y8D01*
X417Y8D01*
X416Y8D01*
X415Y8D01*
X414Y8D01*
X413Y8D01*
X412Y9D01*
X411Y9D01*
X410Y9D01*
X409Y9D01*
X408Y9D01*
X407Y10D01*
X406Y10D01*
X405Y10D01*
X404Y10D01*
X403Y10D01*
X402Y11D01*
X401Y11D01*
X400Y11D01*
X399Y11D01*
X398Y11D01*
X397Y12D01*
X396Y12D01*
X395Y12D01*
X394Y12D01*
X393Y12D01*
X392Y13D01*
X391Y13D01*
X390Y13D01*
X389Y13D01*
X388Y14D01*
X387Y14D01*
X386Y14D01*
X385Y14D01*
X384Y14D01*
X383Y15D01*
X382Y15D01*
X381Y15D01*
X380Y15D01*
X379Y16D01*
X378Y16D01*
X377Y16D01*
X376Y16D01*
X375Y17D01*
X374Y17D01*
X373Y17D01*
X372Y17D01*
X371Y18D01*
X370Y18D01*
X369Y18D01*
X368Y19D01*
X367Y19D01*
X366Y19D01*
X365Y19D01*
X364Y20D01*
X363Y20D01*
X362Y20D01*
X361Y20D01*
X360Y21D01*
X359Y21D01*
X358Y21D01*
X357Y22D01*
X356Y22D01*
X355Y22D01*
X354Y23D01*
X353Y23D01*
X352Y23D01*
X351Y23D01*
X350Y24D01*
X349Y24D01*
X348Y24D01*
X347Y25D01*
X346Y25D01*
X345Y25D01*
X344Y26D01*
X343Y26D01*
X342Y26D01*
X341Y27D01*
X340Y27D01*
X339Y27D01*
X338Y28D01*
X337Y28D01*
X336Y28D01*
X335Y29D01*
X334Y29D01*
X333Y29D01*
X332Y30D01*
X331Y30D01*
X330Y30D01*
X329Y31D01*
X328Y31D01*
X327Y32D01*
X326Y32D01*
X325Y32D01*
X324Y33D01*
X323Y33D01*
X322Y33D01*
X321Y34D01*
X320Y34D01*
X319Y35D01*
X318Y35D01*
X317Y35D01*
X316Y36D01*
X315Y36D01*
X314Y37D01*
X313Y37D01*
X312Y37D01*
X311Y38D01*
X310Y38D01*
X309Y39D01*
X308Y39D01*
X307Y39D01*
X306Y40D01*
X305Y40D01*
X304Y41D01*
X303Y41D01*
X302Y42D01*
X301Y42D01*
X300Y42D01*
X299Y43D01*
X298Y43D01*
X297Y44D01*
X296Y44D01*
X295Y45D01*
X294Y45D01*
X293Y46D01*
X292Y46D01*
X291Y46D01*
X290Y47D01*
X289Y47D01*
X288Y48D01*
X287Y48D01*
X286Y49D01*
X285Y49D01*
X284Y50D01*
X283Y50D01*
X282Y51D01*
X281Y51D01*
X280Y52D01*
X279Y52D01*
X278Y53D01*
X277Y53D01*
X276Y54D01*
X275Y54D01*
X274Y55D01*
X273Y55D01*
X272Y56D01*
X271Y56D01*
X270Y57D01*
X269Y57D01*
X268Y58D01*
X267Y58D01*
X266Y59D01*
X265Y59D01*
X264Y60D01*
X263Y60D01*
X262Y61D01*
X261Y61D01*
X260Y62D01*
X259Y63D01*
X258Y63D01*
X257Y64D01*
X256Y64D01*
X255Y65D01*
X254Y65D01*
X253Y66D01*
X252Y66D01*
X251Y67D01*
X250Y68D01*
X249Y68D01*
X248Y69D01*
X247Y69D01*
X246Y70D01*
X245Y71D01*
X244Y71D01*
X243Y72D01*
X242Y72D01*
X241Y73D01*
X240Y74D01*
X239Y74D01*
X238Y75D01*
X237Y75D01*
X236Y76D01*
X235Y77D01*
X234Y77D01*
X233Y78D01*
X232Y79D01*
X231Y79D01*
X230Y80D01*
X229Y80D01*
X228Y81D01*
X227Y82D01*
X226Y82D01*
X225Y83D01*
X224Y84D01*
X223Y84D01*
X222Y85D01*
X221Y86D01*
X220Y86D01*
X219Y87D01*
X218Y88D01*
X217Y88D01*
X216Y89D01*
X215Y90D01*
X214Y91D01*
X213Y91D01*
X212Y92D01*
X211Y93D01*
X210Y93D01*
X209Y94D01*
X208Y95D01*
X207Y95D01*
X206Y96D01*
X205Y97D01*
X204Y98D01*
X203Y98D01*
X202Y99D01*
X201Y100D01*
X200Y101D01*
X199Y101D01*
X198Y102D01*
X197Y103D01*
X196Y104D01*
X195Y104D01*
X194Y105D01*
X193Y106D01*
X192Y107D01*
X191Y108D01*
X190Y108D01*
X189Y109D01*
X188Y110D01*
X187Y111D01*
X186Y112D01*
X185Y112D01*
X184Y113D01*
X183Y114D01*
X182Y115D01*
X181Y116D01*
X180Y116D01*
X179Y117D01*
X178Y118D01*
X177Y119D01*
X176Y120D01*
X175Y121D01*
X174Y121D01*
X173Y122D01*
X172Y123D01*
X171Y124D01*
X170Y125D01*
X169Y126D01*
X168Y127D01*
X167Y128D01*
X166Y129D01*
X165Y129D01*
X164Y130D01*
X163Y131D01*
X162Y132D01*
X161Y133D01*
X160Y134D01*
X159Y135D01*
X158Y136D01*
X157Y137D01*
X156Y138D01*
X155Y139D01*
X154Y140D01*
X153Y141D01*
X152Y142D01*
X151Y143D01*
X150Y143D01*
X149Y144D01*
X148Y145D01*
X147Y146D01*
X146Y147D01*
X145Y148D01*
X144Y149D01*
X143Y150D01*
X142Y151D01*
X142Y152D01*
X141Y153D01*
X140Y154D01*
X139Y155D01*
X138Y156D01*
X137Y157D01*
X136Y158D01*
X135Y159D01*
X134Y160D01*
X133Y161D01*
X132Y162D01*
X131Y163D01*
X130Y164D01*
X129Y165D01*
X128Y166D01*
X128Y167D01*
X127Y168D01*
X126Y169D01*
X125Y170D01*
X124Y171D01*
X123Y172D01*
X122Y173D01*
X121Y174D01*
X120Y175D01*
X120Y176D01*
X119Y177D01*
X118Y178D01*
X117Y179D01*
X116Y180D01*
X115Y181D01*
X115Y182D01*
X114Y183D01*
X113Y184D01*
X112Y185D01*
X111Y186D01*
X111Y187D01*
X110Y188D01*
X109Y189D01*
X108Y190D01*
X107Y191D01*
X106Y192D01*
X106Y193D01*
X105Y194D01*
X104Y195D01*
X103Y196D01*
X103Y197D01*
X102Y198D01*
X101Y199D01*
X100Y200D01*
X100Y201D01*
X99Y202D01*
X98Y203D01*
X97Y204D01*
X97Y205D01*
X96Y206D01*
X95Y207D01*
X94Y208D01*
X94Y209D01*
X93Y210D01*
X92Y211D01*
X92Y212D01*
X91Y213D01*
X90Y214D01*
X90Y215D01*
X89Y216D01*
X88Y217D01*
X87Y218D01*
X87Y219D01*
X86Y220D01*
X85Y221D01*
X85Y222D01*
X84Y223D01*
X83Y224D01*
X83Y225D01*
X82Y226D01*
X81Y227D01*
X81Y228D01*
X80Y229D01*
X79Y230D01*
X79Y231D01*
X78Y232D01*
X78Y233D01*
X77Y234D01*
X76Y235D01*
X76Y236D01*
X75Y237D01*
X74Y238D01*
X74Y239D01*
X73Y240D01*
X73Y241D01*
X72Y242D01*
X71Y243D01*
X71Y244D01*
X70Y245D01*
X70Y246D01*
X69Y247D01*
X68Y248D01*
X68Y249D01*
X67Y250D01*
X67Y251D01*
X66Y252D01*
X65Y253D01*
X65Y254D01*
X64Y255D01*
X64Y256D01*
X63Y257D01*
X63Y258D01*
X62Y259D01*
X62Y260D01*
X61Y261D01*
X60Y262D01*
X60Y263D01*
X59Y264D01*
X59Y265D01*
X58Y266D01*
X58Y267D01*
X57Y268D01*
X57Y269D01*
X56Y270D01*
X56Y271D01*
X55Y272D01*
X55Y273D01*
X54Y274D01*
X54Y275D01*
X53Y276D01*
X53Y277D01*
X52Y278D01*
X52Y279D01*
X51Y280D01*
X51Y281D01*
X50Y282D01*
X50Y283D01*
X49Y284D01*
X49Y285D01*
X48Y286D01*
X48Y287D01*
X47Y288D01*
X47Y289D01*
X46Y290D01*
X46Y291D01*
X45Y292D01*
X45Y293D01*
X44Y294D01*
X44Y296D01*
X43Y297D01*
X43Y298D01*
X42Y299D01*
X42Y300D01*
X41Y301D01*
X41Y303D01*
X40Y304D01*
X40Y305D01*
X39Y306D01*
X39Y307D01*
X38Y308D01*
X38Y310D01*
X37Y311D01*
X37Y312D01*
X36Y313D01*
X36Y315D01*
X35Y316D01*
X35Y317D01*
X34Y318D01*
X34Y320D01*
X33Y321D01*
X33Y322D01*
X32Y323D01*
X32Y325D01*
X31Y326D01*
X31Y328D01*
X30Y329D01*
X30Y330D01*
X29Y331D01*
X29Y333D01*
X28Y334D01*
X28Y336D01*
X27Y337D01*
X27Y339D01*
X26Y340D01*
X26Y342D01*
X25Y343D01*
X25Y345D01*
X24Y346D01*
X24Y348D01*
X23Y349D01*
X23Y351D01*
X22Y352D01*
X22Y355D01*
X21Y356D01*
X21Y358D01*
X20Y359D01*
X20Y361D01*
X19Y362D01*
X19Y365D01*
X18Y366D01*
X18Y368D01*
X17Y369D01*
X17Y372D01*
X16Y373D01*
X16Y376D01*
X15Y377D01*
X15Y380D01*
X14Y381D01*
X14Y384D01*
X13Y385D01*
X13Y388D01*
X12Y389D01*
X12Y393D01*
X11Y394D01*
X11Y398D01*
X10Y399D01*
X10Y403D01*
X9Y404D01*
X9Y408D01*
X8Y409D01*
X8Y413D01*
X7Y414D01*
X7Y419D01*
X6Y420D01*
X6Y426D01*
X5Y427D01*
X5Y433D01*
X4Y434D01*
X4Y441D01*
X3Y442D01*
X3Y450D01*
X2Y451D01*
X2Y461D01*
X1Y462D01*
X1Y478D01*
X0Y479D01*
X0Y3171D01*
X1Y3172D01*
X1Y3187D01*
X2Y3188D01*
X2Y3197D01*
X3Y3198D01*
X3Y3205D01*
X4Y3206D01*
X4Y3212D01*
X5Y3213D01*
X5Y3218D01*
X6Y3219D01*
X6Y3224D01*
X7Y3225D01*
X7Y3229D01*
X8Y3230D01*
X8Y3234D01*
X9Y3235D01*
X9Y3238D01*
X10Y3239D01*
X10Y3242D01*
X11Y3243D01*
X11Y3246D01*
X12Y3247D01*
X12Y3249D01*
X13Y3250D01*
X13Y3252D01*
X14Y3253D01*
X14Y3256D01*
X15Y3257D01*
X15Y3259D01*
X16Y3260D01*
X16Y3262D01*
X17Y3263D01*
X17Y3265D01*
X18Y3266D01*
X18Y3267D01*
X19Y3268D01*
X19Y3270D01*
X20Y3271D01*
X20Y3273D01*
X21Y3274D01*
X21Y3275D01*
X22Y3276D01*
X22Y3277D01*
X23Y3278D01*
X23Y3280D01*
X24Y3281D01*
X24Y3282D01*
X25Y3283D01*
X25Y3284D01*
X26Y3285D01*
X26Y3286D01*
X27Y3287D01*
X27Y3288D01*
X28Y3289D01*
X28Y3290D01*
X29Y3291D01*
X29Y3292D01*
X30Y3293D01*
X30Y3294D01*
X31Y3295D01*
X31Y3296D01*
X32Y3297D01*
X32Y3298D01*
X33Y3299D01*
X34Y3300D01*
X34Y3301D01*
X35Y3302D01*
X35Y3303D01*
X36Y3304D01*
X37Y3305D01*
X37Y3306D01*
X38Y3307D01*
X38Y3308D01*
X39Y3309D01*
X40Y3310D01*
X40Y3311D01*
X41Y3312D01*
X42Y3313D01*
X42Y3314D01*
X43Y3315D01*
X44Y3316D01*
X45Y3317D01*
X45Y3318D01*
X46Y3319D01*
X47Y3320D01*
X48Y3321D01*
X48Y3322D01*
X49Y3323D01*
X50Y3324D01*
X51Y3325D01*
X52Y3326D01*
X52Y3327D01*
X53Y3328D01*
X54Y3329D01*
X55Y3330D01*
X56Y3331D01*
X57Y3332D01*
X58Y3333D01*
X59Y3334D01*
X60Y3335D01*
X61Y3336D01*
X62Y3337D01*
X62Y3338D01*
X63Y3338D01*
X64Y3339D01*
X65Y3340D01*
X66Y3341D01*
X67Y3342D01*
X68Y3343D01*
X69Y3344D01*
X70Y3345D01*
X71Y3346D01*
X72Y3347D01*
X73Y3348D01*
X74Y3348D01*
X75Y3349D01*
X76Y3350D01*
X77Y3351D01*
X78Y3352D01*
X79Y3352D01*
X80Y3353D01*
X81Y3354D01*
X82Y3355D01*
X83Y3355D01*
X84Y3356D01*
X85Y3357D01*
X86Y3358D01*
X87Y3358D01*
X88Y3359D01*
X89Y3360D01*
X90Y3360D01*
X91Y3361D01*
X92Y3362D01*
X93Y3362D01*
X94Y3363D01*
X95Y3363D01*
X96Y3364D01*
X97Y3365D01*
X98Y3365D01*
X99Y3366D01*
X100Y3366D01*
X101Y3367D01*
X102Y3368D01*
X103Y3368D01*
X104Y3369D01*
X105Y3369D01*
X106Y3370D01*
X107Y3370D01*
X108Y3371D01*
X109Y3371D01*
X110Y3372D01*
X111Y3372D01*
X112Y3373D01*
X113Y3373D01*
X114Y3374D01*
X115Y3374D01*
X116Y3375D01*
X117Y3375D01*
X118Y3376D01*
X119Y3376D01*
X120Y3377D01*
X121Y3377D01*
X122Y3377D01*
X123Y3378D01*
X124Y3378D01*
X125Y3379D01*
X126Y3379D01*
X127Y3380D01*
X128Y3380D01*
X129Y3380D01*
X130Y3381D01*
X131Y3381D01*
X132Y3381D01*
X133Y3382D01*
X134Y3382D01*
X135Y3383D01*
X136Y3383D01*
X137Y3383D01*
X138Y3384D01*
X139Y3384D01*
X140Y3384D01*
X141Y3385D01*
X142Y3385D01*
X143Y3385D01*
X144Y3386D01*
X145Y3386D01*
X146Y3386D01*
X147Y3386D01*
X148Y3387D01*
X149Y3387D01*
X150Y3387D01*
X151Y3388D01*
X152Y3388D01*
X153Y3388D01*
X154Y3389D01*
X155Y3389D01*
X156Y3389D01*
X157Y3389D01*
X158Y3390D01*
X159Y3390D01*
X160Y3390D01*
X161Y3390D01*
X162Y3391D01*
X163Y3391D01*
X164Y3391D01*
X165Y3391D01*
X166Y3392D01*
X167Y3392D01*
X168Y3392D01*
X169Y3392D01*
X170Y3392D01*
X171Y3393D01*
X172Y3393D01*
X173Y3393D01*
X174Y3393D01*
X175Y3393D01*
X176Y3394D01*
X177Y3394D01*
X178Y3394D01*
X179Y3394D01*
X180Y3394D01*
X181Y3394D01*
X182Y3395D01*
X183Y3395D01*
X184Y3395D01*
X185Y3395D01*
X186Y3395D01*
X187Y3395D01*
X188Y3396D01*
X189Y3396D01*
X190Y3396D01*
X191Y3396D01*
X192Y3396D01*
X193Y3396D01*
X194Y3396D01*
X195Y3397D01*
X196Y3397D01*
X197Y3397D01*
X198Y3397D01*
X199Y3397D01*
X200Y3397D01*
X201Y3397D01*
X202Y3397D01*
X203Y3398D01*
X204Y3398D01*
X205Y3398D01*
X206Y3398D01*
X207Y3398D01*
X208Y3398D01*
X209Y3398D01*
X210Y3398D01*
X211Y3398D01*
X212Y3398D01*
X213Y3399D01*
X214Y3399D01*
X215Y3399D01*
X216Y3399D01*
X217Y3399D01*
X218Y3399D01*
X219Y3399D01*
X220Y3399D01*
X221Y3399D01*
X222Y3399D01*
X223Y3399D01*
X224Y3399D01*
X225Y3399D01*
X226Y3399D01*
X227Y3399D01*
X228Y3399D01*
X229Y3400D01*
D02*
G04 End of contour*
M02*